<?xml version="1.0" encoding="utf-8"?>
<!-- Generator: Adobe Illustrator 22.0.1, SVG Export Plug-In . SVG Version: 6.00 Build 0)  -->
<svg version="1.1" id="Layer_1" xmlns="http://www.w3.org/2000/svg" xmlns:xlink="http://www.w3.org/1999/xlink" x="0px" y="0px"
	 viewBox="0 0 200 200" style="enable-background:new 0 0 200 200;" xml:space="preserve">
<style type="text/css">
	.st0{opacity:0.2;}
	.st1{fill:#7F94A5;}
</style>
<g class="st0">
	<g>
		<path class="st1" d="M58.2,106.9l-53.4-33c-1.1-0.7-1.5-2-0.9-3.1l26.3-51.8c0.3-0.6,0.9-1,1.5-1.2c0.7-0.2,1.3-0.1,1.9,0.3
			L95.3,56c0.6,0.4,1,0.9,1.1,1.6c0.1,0.7,0,1.3-0.4,1.9l-34.6,46.7C60.6,107.3,59.2,107.5,58.2,106.9z M9.2,71l49.6,30.7l31.7-42.8
			L33.4,23.5L9.2,71z"/>
		<path class="st1" d="M52.2,91.8L20.9,72.5c-5.3-3.3-8.9-8.6-9.9-14.7c-0.2-1.3,0.7-2.6,2-2.8c1.3-0.2,2.6,0.7,2.8,2
			c0.8,4.7,3.6,8.9,7.7,11.4l31.3,19.3c4.1,2.5,9,3.2,13.6,1.8c1.3-0.4,2.6,0.3,3,1.6c0.4,1.3-0.3,2.6-1.6,3
			C63.9,95.9,57.5,95.1,52.2,91.8z"/>
		<path class="st1" d="M39.8,58.6c-0.5-0.3-0.9-0.8-1.1-1.5l-2.4-10c-0.3-1.3,0.5-2.6,1.8-2.9l10-2.4c1.2-0.3,2.6,0.5,2.9,1.8
			l2.4,10c0.1,0.6,0,1.3-0.3,1.8c-0.3,0.5-0.9,0.9-1.5,1.1l-10,2.4C40.9,59.1,40.3,58.9,39.8,58.6z M41.6,48.4l1.2,5.3l5.3-1.2
			l-1.2-5.3L41.6,48.4z"/>
		<path class="st1" d="M47.3,83.1c-0.5-0.3-0.9-0.9-1.1-1.5l-2.4-10c-0.3-1.3,0.5-2.6,1.8-2.9l10-2.4c1.3-0.3,2.6,0.5,2.9,1.8
			l2.4,10c0.3,1.3-0.5,2.6-1.8,2.9l-10,2.4C48.5,83.6,47.8,83.5,47.3,83.1z M49.1,72.9l1.2,5.3l5.3-1.2l-1.2-5.3L49.1,72.9z"/>
		<path class="st1" d="M37.4,48.7l-15.1-9.3c-1.1-0.7-1.5-2.2-0.8-3.3s2.2-1.5,3.3-0.8L40,44.6c1.1,0.7,1.5,2.2,0.8,3.3
			C40,49,38.6,49.4,37.4,48.7z"/>
		<path class="st1" d="M81.2,75.7L49.7,56.3c-1.1-0.7-1.5-2.2-0.8-3.3c0.7-1.1,2.2-1.5,3.3-0.8l31.5,19.5c1.1,0.7,1.5,2.2,0.8,3.3
			C83.9,76.1,82.4,76.4,81.2,75.7z"/>
	</g>
	<g>
		<path class="st1" d="M137.9,106.3l-34.6-46.7c-0.4-0.5-0.6-1.2-0.4-1.9c0.1-0.7,0.5-1.2,1.1-1.6L165.6,18c0.6-0.4,1.3-0.5,1.9-0.3
			c0.6,0.2,1.2,0.6,1.5,1.2l26.3,51.8c0.6,1.1,0.2,2.5-0.9,3.1l-53.4,33C140.1,107.5,138.7,107.3,137.9,106.3z M165.9,23.5
			l-57.1,35.3l31.7,42.8L190.1,71L165.9,23.5z"/>
		<path class="st1" d="M129.6,94.1c-1.3-0.4-2-1.7-1.6-3c0.4-1.3,1.7-2,3-1.6c4.6,1.4,9.5,0.7,13.6-1.8l31.3-19.3
			c4.1-2.5,6.9-6.7,7.7-11.4c0.2-1.3,1.5-2.2,2.8-2c1.3,0.2,2.2,1.5,2,2.8c-1,6.1-4.6,11.4-9.9,14.7l-31.3,19.3
			C141.9,95.1,135.5,95.9,129.6,94.1z"/>
		<path class="st1" d="M157.7,58.9l-10-2.4c-0.6-0.1-1.2-0.5-1.5-1.1s-0.4-1.2-0.3-1.8l2.4-10c0.3-1.2,1.7-2.1,2.9-1.8l10,2.4
			c1.3,0.3,2.1,1.6,1.8,2.9l-2.4,10c-0.2,0.7-0.6,1.2-1.1,1.5C159,58.9,158.4,59.1,157.7,58.9z M152.5,47.2l-1.2,5.3l5.3,1.2
			l1.2-5.3L152.5,47.2z"/>
		<path class="st1" d="M150.2,83.4l-10-2.4c-1.3-0.3-2.1-1.6-1.8-2.9l2.4-10c0.3-1.3,1.6-2.1,2.9-1.8l10,2.4
			c1.3,0.3,2.1,1.6,1.8,2.9l-2.4,10c-0.2,0.6-0.6,1.2-1.1,1.5C151.5,83.5,150.8,83.6,150.2,83.4z M144.9,71.7l-1.2,5.3l5.3,1.2
			l1.2-5.3L144.9,71.7z"/>
		<path class="st1" d="M158.6,47.9c-0.7-1.1-0.3-2.6,0.8-3.3l15.1-9.3c1.1-0.7,2.6-0.3,3.3,0.8c0.7,1.1,0.3,2.6-0.8,3.3l-15.1,9.3
			C160.8,49.4,159.3,49,158.6,47.9z"/>
		<path class="st1" d="M114.8,75c-0.7-1.1-0.3-2.6,0.8-3.3l31.5-19.5c1.1-0.7,2.6-0.3,3.3,0.8c0.7,1.1,0.3,2.6-0.8,3.3l-31.5,19.5
			C117,76.4,115.5,76.1,114.8,75z"/>
	</g>
	<path class="st1" d="M99.2,47c-1.3,0-2.4-1.1-2.4-2.4V27.3c0-1.3,1.1-2.4,2.4-2.4s2.4,1.1,2.4,2.4v17.3
		C101.7,45.9,100.6,47,99.2,47z"/>
	<path class="st1" d="M107.3,47.7c-0.6,0-1.2-0.2-1.7-0.7c-0.9-0.9-0.9-2.5,0-3.4l12.2-12.2c0.9-0.9,2.5-0.9,3.4,0
		c0.9,0.9,0.9,2.5,0,3.4L109,47C108.5,47.5,107.9,47.7,107.3,47.7z"/>
	<path class="st1" d="M91.2,47.7c-0.6,0-1.2-0.2-1.7-0.7L77.3,34.8c-0.9-0.9-0.9-2.5,0-3.4c0.9-0.9,2.5-0.9,3.4,0l12.2,12.2
		c0.9,0.9,0.9,2.5,0,3.4C92.4,47.5,91.8,47.7,91.2,47.7z"/>
</g>
</svg>
