<?xml version="1.0" encoding="utf-8"?>
<!-- Generator: Adobe Illustrator 21.1.0, SVG Export Plug-In . SVG Version: 6.00 Build 0)  -->
<svg version="1.1" id="Layer_1" xmlns="http://www.w3.org/2000/svg" xmlns:xlink="http://www.w3.org/1999/xlink" x="0px" y="0px"
	 viewBox="0 0 325.5 208.1" style="enable-background:new 0 0 325.5 208.1;" xml:space="preserve">
<style type="text/css">
	.st0{fill:#D2ECEF;}
</style>
<g>
	<g>
		<path class="st0" d="M301.8,181.8c-0.5-1-2.1-1.5-3.1-0.9l-12.1,7l-47-79.3c-0.5-1-2.1-1.5-3.1-0.9c-1,0.5-1.5,2.1-0.9,3.1
			l47,79.3l-12.9,7.3c-1,0.5-1.5,2.1-0.9,3.1s1.6,1.4,2.7,1.1c0.2-0.1,0.2-0.1,0.4-0.1l28.9-16.4C302,184.1,302.3,182.9,301.8,181.8
			z"/>
		<g>
			<path class="st0" d="M228.1,50.6c-4.7-7.7-16.8-26.2-22.6-32.9c-0.7-0.7-2-1-2.8-0.5l-30.1,18.1c-1,0.6-1.4,1.6-1,2.7
				c3.2,8.2,13.7,27.7,18.5,35.4c7.5,12.6,16.5,23.2,25,29.9c8.2,6.6,15.4,9,20.8,7.2c0.6-0.2,1.3-0.4,2.1-0.9
				c5.4-3.2,7.2-11.5,5-22.9C240.9,76,235.6,63.2,228.1,50.6z M203.4,22.3c5.2,6.4,13.8,19.3,18.9,27.4c-0.9,1.5-2.1,3.1-4.2,4.5
				c-3.6,2.1-6.3,1.9-9.5,1.5c-3.5-0.5-7.5-0.9-12.2,2.1c-3.4,2.1-5,4.3-6.2,6.6c-4.7-8.3-10.5-19.4-13.4-25.9L203.4,22.3z
				 M238.6,87.8c1.7,9.5,0.6,16.3-3,18.4c-3.6,2.1-10,0-17.5-5.9c-8.2-6.6-16.8-16.6-23.9-28.8c-0.4-0.6-0.7-1.4-1.1-2
				c1.1-3,2.2-5.5,5.8-7.7c3.6-2.1,6.3-1.9,9.5-1.5c3.5,0.5,7.5,0.9,12.2-2.1c2.2-1.2,3.7-2.7,4.6-4.2
				C231.7,65.7,236.6,77.7,238.6,87.8z"/>
		</g>
	</g>
	<g>
		<path class="st0" d="M23.1,185L52,201.5c0.2,0.1,0.2,0.1,0.4,0.1c1.1,0.3,2.2-0.1,2.7-1.1s0.1-2.6-0.9-3.1l-12.9-7.3l47-79.3
			c0.5-1,0.1-2.6-0.9-3.1c-1-0.5-2.6-0.1-3.1,0.9l-47,79.3l-12.1-7c-1-0.5-2.6-0.1-3.1,0.9S21.7,184.1,23.1,185z"/>
		<g>
			<path class="st0" d="M80.7,86.8c-2.1,11.5-0.3,19.7,5,22.9c0.8,0.5,1.4,0.7,2.1,0.9c5.4,1.8,12.6-0.6,20.8-7.2
				c8.5-6.7,17.5-17.4,25-29.9c4.7-7.7,15.3-27.2,18.5-35.4c0.4-1.1,0-2.2-1-2.7L121,17.3c-0.8-0.5-2.1-0.2-2.8,0.5
				c-5.8,6.7-17.9,25.1-22.6,32.9C88.1,63.2,82.8,76,80.7,86.8z M146.9,38.6c-2.9,6.5-8.7,17.6-13.4,25.9c-1.1-2.3-2.8-4.5-6.2-6.6
				c-4.7-3-8.7-2.6-12.2-2.1c-3.2,0.4-6,0.6-9.5-1.5c-2.2-1.4-3.3-3-4.2-4.5c5.1-8.1,13.7-21,18.9-27.4L146.9,38.6z M98.5,54
				c0.9,1.5,2.4,2.9,4.6,4.2c4.7,3,8.7,2.6,12.2,2.1c3.2-0.4,6-0.6,9.5,1.5c3.6,2.1,4.7,4.7,5.8,7.7c-0.4,0.6-0.7,1.4-1.1,2
				c-7.2,12.2-15.8,22.2-23.9,28.8c-7.5,5.9-13.9,8-17.5,5.9c-3.6-2.1-4.7-9-3-18.4C87.1,77.7,92,65.7,98.5,54z"/>
		</g>
	</g>
	<g>
		<path class="st0" d="M163,21.9L163,21.9c-1.4,0-2.3-1.1-2.3-2.3L161,7.9c0-1.4,1.1-2.3,2.3-2.3c1.4,0,2.3,1.1,2.3,2.3l-0.2,11.8
			C165.3,21,164.1,21.9,163,21.9z"/>
	</g>
	<g>
		<path class="st0" d="M176.2,23.1c-0.5,0-0.9,0-1.1-0.2c-1.1-0.7-1.4-2-0.7-3.2l6.1-10.2c0.7-1.1,2-1.4,3.2-0.7
			c1.1,0.7,1.4,2,0.7,3.2l-6.1,10.2C177.8,22.8,177.1,23.1,176.2,23.1z"/>
	</g>
	<g>
		<path class="st0" d="M149.9,23.1c-0.7,0-1.6-0.5-1.8-1.1l-6.3-10.2c-0.7-1.1-0.2-2.5,0.7-3.2c1.1-0.7,2.5-0.2,3.2,0.7l6.3,10.2
			c0.7,1.1,0.2,2.5-0.7,3.2C150.8,23.1,150.3,23.1,149.9,23.1z"/>
	</g>
</g>
</svg>
