<?xml version="1.0" encoding="utf-8"?>
<!-- Generator: Adobe Illustrator 21.1.0, SVG Export Plug-In . SVG Version: 6.00 Build 0)  -->
<svg version="1.1" id="Layer_1" xmlns="http://www.w3.org/2000/svg" xmlns:xlink="http://www.w3.org/1999/xlink" x="0px" y="0px"
	 viewBox="0 0 631.8 615.2" style="enable-background:new 0 0 631.8 615.2;" xml:space="preserve">
<style type="text/css">
	.st0{fill:#88D2D4;}
	.st1{fill:#D2EDEF;}
	.st2{fill:none;}
	.st3{fill:#FFF8F6;}
	.st4{fill:#ED8A6B;}
	.st5{fill:#FAB8A1;}
</style>
<g>
	<path class="st0" d="M114.7,290.7l-1.2,1.9l-2-1c-13.3-6.5-24.9-3.4-31.2,8.1c-5.2,9.3-5.3,23.7,9.8,36.2l2.8,2.3l-3.2,1.8
		c-7.5,4.2-11.4,10.1-11.2,17c0.2,7.9,5.9,16.1,13.9,20.1c4.5,2.2,13.4,5,22.9-1.8l2.8-2l0.6,1.8c12.1-8.5,19.1-20.2,22.5-34.4
		c5.7-23.5-2-47.4-1.6-70.9c0-0.3,0-0.6,0-0.9c-2,0.6-4.1,1.4-6.1,2.5C126.6,275.3,120,282.1,114.7,290.7z"/>
	<path class="st0" d="M147.8,317.3c0.3,13.7-1.5,26.9-7.1,39.8c-4.4,10.1-11.9,16.8-20.4,22.8c3.9,8,10.9,10.8,16.4,11.6
		c13.4,2,30.1-5.1,37.9-16.3c3.6-5.2,6.9-13.4,1.6-23.3l-2.1-3.8l4.4,0.2c8.6,0.3,15.8-2.2,19.7-6.8c3.4-4,4.3-9.6,2.8-16.6
		c-2.9-13.9-15.6-24.8-28.4-24.3l-3.2,0.1l0.6-3.1c1.9-9.7-3.1-19.8-12.8-25.8c-4.2-2.5-8.5-3.7-12.9-3.5
		C143.5,284.5,147.6,301.3,147.8,317.3z"/>
	<path class="st0" d="M141.1,340.8c-3.5,14.2-10.5,25.9-22.5,34.4l0.5,1.5c0.4,1.2,0.8,2.3,1.3,3.3c8.4-6,16-12.8,20.4-22.8
		c5.6-12.9,7.4-26.1,7.1-39.8c-0.2-16.1-4.3-32.8-3.3-49.1c-1.6,0.1-3.2,0.3-4.9,0.8c0,0.3,0,0.6,0,0.9
		C139.2,293.4,146.8,317.3,141.1,340.8z"/>
</g>
<g>
	<path class="st1" d="M98.1,341.6c3-1,3-5.3,0.4-6.8c-10.6-6.1-17.3-15.7-15.2-28.2c3.1-14.5,17.7-15.7,28.4-9c2,1,4.4,0.7,5.4-1.3
		c7.1-12.5,17.7-26.1,34.2-22c10.8,3,18,16.2,11.8,26.2c-2,3.3,1.5,7.2,5,5.5c11.7-4.5,21.6,5.3,26.5,15.2
		c8.4,18.6-10.2,21.5-24.1,19c-3.8-0.8-5.6,4.4-3.5,6.6c26.3,28.7-39.6,57.7-44.1,20.8c-0.2-1.8-0.9-2.3-2.2-2.8
		c-1.3-0.5-3.2-0.8-4.2,0.5C97.1,388.4,65.9,354.2,98.1,341.6z"/>
	<g>
		<path class="st0" d="M116.6,352.2c3.2-4.1,7-8.2,10.2-11.7c1.3,0.5,2.6,0.9,3.9,1.4c-1.1,5.7-2.3,11.3-1.5,17.4
			c0.4,3.6,5.8,2.4,5.4-1.3c-0.6-4.8,0.5-10.5,1.2-15.5c1.8-0.2,4.2-0.5,6.1-0.7c2.3,4,5.3,8,7.1,12.6c1,3,6.2,0.5,4.6-2.4
			c-1.8-4.7-4.1-8.7-7.1-12.6c1.1-1.4,2.1-2.7,2.6-4c4.5,1.3,8.8,2,13.8,2.6c3.1,0.2,3.7-4.8-0.1-5.5c-4.4-0.7-8.8-1.4-13.2-2.7
			c-0.1-1.2-0.3-2.4-1.1-3.6c4-2.3,8-5.3,12-7.6c2.9-1.6,0.5-6.2-2.4-4.6c-4.6,2.4-8,5.3-12.6,7.7c0,0,0,0-0.1-0.6
			c-2.1-2.2-4.1-3.2-6.6-3.5c0.7-4.4,1.3-9.4,2.6-13.8c0.8-3.2-4.3-5-5.1-1.2c-1.8,5.1-1.8,10.7-3,15.7c-1.2,0.1-2.3,0.9-4.1,1.7
			c-3.5-3.9-7-7.1-10-11.1c-2.2-2.8-6.1,0.7-3.9,3.5c2.9,3.9,7,7.1,9.9,10.5c-1.1,1.4-2.1,2.7-3.1,4.7c-4.4-0.7-8.7-0.8-13.6-0.8
			c-3.7-0.2-3.6,5.4,0.1,5.5c4.3,0.1,8.7,0.8,12.4,0.9c0.1,1.2,0.4,3,1.1,4.2c-3.8,4.2-7.6,8.3-10.7,13
			C109.9,352.4,113.9,355,116.6,352.2z"/>
	</g>
</g>
<path class="st2" d="M472,120.6c6.3-0.2,14.3-2.5,17.4-8.3c5-9.3-3.9-19.8-11.4-24.7c-0.8-0.6-1.6-1.1-2.4-1.6
	C466.3,97.1,452.2,120.1,472,120.6z"/>
<path class="st2" d="M548.2,83.3c-9-5.5-15.1,2.8-9.9,11.4c3.8,6.6,10.2,9.3,16.7,8.8C556.4,95.7,555.6,87.6,548.2,83.3z"/>
<path class="st0" d="M399.8,109.6c-3.9,0.3-4.9,5.5-1.5,7.3c10.6,6.8,8.5,20.5,3.5,30.3c-10,17.9-23.4,4.5-29.5-8.1
	c-1.6-3.5-6.9-1.9-7.4,1.1c-6.8,34.4-58.1,8.8-48.5-15.3c-2-0.7-4-1.5-6-2.3c-4,7.9-2.1,15.1,0.5,20c6.3,12,22,21.2,35.6,20.9
	c6.3-0.1,14.9-2.4,19.7-12.6l1.9-3.9l2.5,3.6c4.9,7.1,11.1,11.4,17.2,11.8c5.2,0.3,10.3-2.2,15-7.6c9.5-10.6,10.7-27.3,2.8-37.3
	l-2-2.5l2.9-1.3c8.2-3.8,13.3-12.7,13.2-23c-1.6,1-3.1,2-4.7,3.1C413.9,101.5,408.2,108.9,399.8,109.6z"/>
<path class="st0" d="M321.9,116.9c1.3-1.3,1.4-2.1,1-3.4s-1.2-3.1-2.9-3.1c-30.2-1.7-21.2-47.2,8.1-28.7c2.5,1.8,6.1-0.7,5.7-3.7
	c-1.4-12.1,2.4-23.2,13.7-29c13.5-6.1,23.2,4.9,24.1,17.5c0.4,2.2,2.1,3.9,4.2,3.6c14.3-1.8,31.5-1.3,38,14.4
	c0.3,0.9,0.6,1.8,0.8,2.7c1.4-0.9,2.8-1.9,4.3-2.7c-1.6-7.1-6.1-12.4-13.4-15.8c-7.1-3.3-16.5-4.6-26.6-3.7l-2.3,0.2l-0.4-2.2
	c-2.7-14.5-12-22.1-25.1-20.3c-10.6,1.4-22.2,9.8-23.3,29.3l-0.2,3.6l-3.3-1.5c-3.6-1.6-7-2.4-10.1-2.4c-3.8,0-7.2,1.2-10.2,3.5
	c-6.2,4.8-9.5,14.3-8,23.1c0.9,4.9,3.9,13.7,15,17.4l3.2,1.1l-0.5,0.7c1.9,0.7,3.9,1.4,5.8,2.1C320.3,118.6,321,117.8,321.9,116.9z"
	/>
<path class="st0" d="M414.9,93.6c1.5-1.1,3.1-2.1,4.7-3.1c0-0.9,0-1.7-0.1-2.6c-0.1-1.2-0.3-2.4-0.6-3.5c-1.5,0.9-2.9,1.8-4.3,2.7
	C415,89.3,415.1,91.5,414.9,93.6z"/>
<path class="st0" d="M310.3,122.5c2,0.8,4,1.6,6,2.3c0.7-1.8,1.8-3.6,3.2-5.4c-1.9-0.7-3.9-1.4-5.8-2.1l-1.5,2.1
	C311.5,120.4,310.9,121.5,310.3,122.5z"/>
<path class="st1" d="M368.1,116c0.7,2,1.6,3.9,2.4,5.7c3.4-1.3,6.6-2.9,9.7-4.9c-3.3-1.3-6.7-2.4-9.9-3.8
	C369.9,114.4,369,115.2,368.1,116z"/>
<path class="st1" d="M358.5,119.2c-0.6,2.1-1.3,4.1-2.2,6c3-0.4,6-0.9,8.9-1.7c-0.7-1.5-1.3-3-1.9-4.6
	C362,119.3,360.2,119.3,358.5,119.2z"/>
<path class="st1" d="M350.2,125.7C350.2,125.7,350.2,125.7,350.2,125.7c1.4-3,2.4-6,3.7-8.8c-1.3-1.3-2.9-3.1-4.2-4.4
	c-4.4,2.5-9.6,4.9-13.2,8.3c-2.7,2.5-6.9-1-4.2-3.6c4.4-4.2,9.7-6.6,14.9-9.1c-0.4-1.3-0.8-2.6-1.2-3.9c-4.7-0.6-10.3-1.1-15.5-1.3
	c-3.9-0.5-4.2-5.3-1.6-5.2c5.6-0.3,11.2,0.3,16.8,0.9c0.5-1.3,1.8-2.5,2.7-3.4c-2.1-3.1-4.1-7-6.6-10.5c-2.1-3.1,2.3-6.4,4.4-3.3
	c2.9,4,5.4,7.5,7.5,11.4c2.2-0.4,3.9-0.3,5.6-0.3c1-4.3,1.1-9.5,2.5-14.2c1-3.4,6.1-2.4,5.2,1c-1.4,4.7-2,9.4-3,14.6
	c1.7,0.9,3,1.4,3.8,2.3c4.8-2,9.2-5.4,14.4-6.9c3.5-1.6,5.1,3.6,2,4.8c-4.4,1.6-8.7,4.1-12.7,6.1c1.2,2.2,1.6,4.4,1.1,7.4
	c-0.4,0.4-0.4,0.4-0.4,0.4c4.5,2.2,8.6,3.2,13.1,5.3c1.8-1.5,3.6-3.1,5.3-4.9c5.3-6.2,11.2-11.3,17.7-16.4c2-1.6,4.2-3.2,6.4-4.7
	c-0.2-0.9-0.5-1.8-0.8-2.7c-6.5-15.7-23.7-16.2-38-14.4c-2.2,0.4-3.8-1.4-4.2-3.6C370.6,54,361,42.9,347.5,49
	c-11.4,5.7-15.1,16.8-13.7,29c0.3,3-3.2,5.5-5.7,3.7c-29.3-18.5-38.3,27-8.1,28.7c1.7,0,2.5,1.8,2.9,3.1s0.4,2.2-1,3.4
	c-0.9,0.8-1.6,1.6-2.3,2.5C329.5,123,339.5,126.1,350.2,125.7z"/>
<path class="st1" d="M364.8,140.1c0.5-3,5.7-4.6,7.4-1.1c6.1,12.7,19.6,26,29.5,8.1c5-9.8,7.1-23.5-3.5-30.3c-3.4-1.8-2.4-7,1.5-7.3
	c8.4-0.7,14.1-8,15.1-16c-5.1,3.6-9.9,7.6-14.2,11.8c-8.5,8.5-16.8,16.9-27.8,21.2c0.3,0.6,0.6,1.1,0.9,1.7c1.6,3.5-2.8,6-4.4,3.3
	c-0.6-1.1-1.2-2.2-1.8-3.3c-0.5,0.1-0.9,0.2-1.4,0.3c-4.1,0.9-8.3,1.4-12.3,1.6c-0.4,0.7-0.8,1.5-1.3,2.2c-1.3,2.9-6.2,0.4-4.8-2.1
	c-7.3-0.1-14.6-1.1-21.9-2.8c-3.1-0.7-6.3-1.7-9.4-2.8C306.8,148.9,358.1,174.5,364.8,140.1z"/>
<path class="st1" d="M347.7,130.4c0-0.1,0.1-0.1,0.1-0.2c0.9-1.4,1.7-2.9,2.4-4.4c0,0,0,0-0.1,0c-10.6,0.4-20.6-2.7-30.6-6.3
	c-1.4,1.8-2.5,3.6-3.2,5.4c3.2,1.1,6.3,2.1,9.4,2.8C333.1,129.2,340.4,130.3,347.7,130.4z"/>
<path class="st1" d="M356.3,125.2c-0.7,1.7-1.5,3.4-2.5,5c4.1-0.2,8.2-0.8,12.3-1.6c0.5-0.1,0.9-0.2,1.4-0.3
	c-0.9-1.6-1.6-3.2-2.4-4.8C362.3,124.3,359.4,124.9,356.3,125.2z"/>
<path class="st1" d="M390.6,108.3c-1.7,1.8-3.5,3.4-5.3,4.9c0.2,0.1,0.4,0.2,0.6,0.3c3,1.4,0.7,6.1-2.3,4.7
	c-1.1-0.5-2.2-0.9-3.3-1.3c-3.1,2-6.4,3.6-9.7,4.9c0.8,1.6,1.6,3.2,2.4,4.8c11-4.3,19.3-12.7,27.8-21.2c4.3-4.2,9-8.2,14.2-11.8
	c0.3-2.1,0.2-4.3-0.3-6.4c-2.2,1.5-4.3,3.1-6.4,4.7C401.8,97,395.8,102.1,390.6,108.3z"/>
<path class="st0" d="M358.5,119.2c1.7,0,3.4,0.1,4.8-0.3c0.6,1.6,1.2,3.1,1.9,4.6c1.8-0.5,3.6-1.1,5.3-1.7c-0.9-1.9-1.7-3.7-2.4-5.7
	c0.9-0.8,1.8-1.7,2.2-3c3.2,1.4,6.6,2.5,9.9,3.8c1.7-1.1,3.4-2.3,5-3.6c-4.5-2.1-8.6-3.1-13.1-5.3c0,0,0,0,0.4-0.4
	c0.5-3,0.1-5.2-1.1-7.4c3.9-2.1,8.3-4.5,12.7-6.1c3.1-1.2,1.5-6.4-2-4.8c-5.2,1.6-9.6,4.9-14.4,6.9c-0.8-0.9-2.1-1.4-3.8-2.3
	c1-5.2,1.6-9.9,3-14.6c1-3.4-4.2-4.4-5.2-1c-1.4,4.7-1.6,9.9-2.5,14.2c-1.7,0-3.4-0.1-5.6,0.3c-2.1-3.9-4.5-7.5-7.5-11.4
	c-2.1-3.1-6.5,0.3-4.4,3.3c2.5,3.5,4.5,7.5,6.6,10.5c-0.9,0.8-2.2,2.1-2.7,3.4c-5.6-0.6-11.2-1.2-16.8-0.9c-2.6-0.1-2.3,4.7,1.6,5.2
	c5.2,0.1,10.8,0.7,15.5,1.3c0.4,1.3,0.8,2.6,1.2,3.9c-5.2,2.4-10.5,4.9-14.9,9.1c-2.7,2.5,1.6,6.1,4.2,3.6c3.5-3.4,8.8-5.8,13.2-8.3
	c1.3,1.3,2.9,3.1,4.2,4.4c-1.2,2.8-2.3,5.8-3.6,8.8c2.1-0.1,4.1-0.3,6.1-0.5C357.2,123.3,357.9,121.3,358.5,119.2z"/>
<path class="st0" d="M369.4,131.6c1.7,2.6,6,0.2,4.4-3.3c-0.3-0.6-0.6-1.1-0.9-1.7c-1.7,0.7-3.5,1.2-5.4,1.7
	C368.1,129.4,368.7,130.5,369.4,131.6z"/>
<path class="st0" d="M347.7,130.4c-1.4,2.5,3.5,5,4.8,2.1c0.5-0.7,0.9-1.5,1.3-2.2C351.8,130.4,349.8,130.4,347.7,130.4z"/>
<path class="st0" d="M383.6,118.2c3,1.4,5.3-3.3,2.3-4.7c-0.2-0.1-0.4-0.2-0.6-0.3c-1.6,1.3-3.3,2.5-5,3.6
	C381.4,117.3,382.5,117.7,383.6,118.2z"/>
<path class="st0" d="M350.2,125.7c-0.7,1.5-1.4,3-2.4,4.4c0,0.1-0.1,0.1-0.1,0.2c2,0,4.1,0,6.1-0.1c0.9-1.6,1.8-3.3,2.5-5
	C354.3,125.5,352.3,125.6,350.2,125.7z"/>
<path class="st0" d="M365.2,123.5c0.7,1.6,1.5,3.2,2.4,4.8c1.9-0.5,3.6-1,5.4-1.7c-0.8-1.6-1.6-3.2-2.4-4.8
	C368.8,122.4,367,123,365.2,123.5z"/>
<path class="st2" d="M100.1,474.5c6.2-1.9,10.2-9.3,11.6-15.4c3.5-19.5-21.9-10.3-34.6-3.4c0.3,0.9,0.7,1.8,1.1,2.7
	C81.5,466.8,90,477.5,100.1,474.5z"/>
<path class="st2" d="M73,518.9c-7.4-6.9-16.7-2.5-13.1,7.4c2.7,8.1,10.6,10.5,18.5,10.7C80.1,530.8,78.6,524,73,518.9z"/>
<g>
	<path class="st3" d="M142.1,251.4c-1,4.1-1.8,8.2-2.2,12.4c1.6-0.4,3.3-0.6,5-0.6c0-0.3,0.1-0.6,0.1-0.9c0.7-4.2,1.6-8.4,2.7-12.4
		c-0.2-0.4-0.3-0.7-0.5-1.1C145.6,249.8,143.9,250.7,142.1,251.4z"/>
	<path class="st3" d="M572.3,149.6c-4.6-0.2-2.9,4.8,0.1,4c12.2-1.6,4.3,13.8-1.2,15.6c-9.5,3.6-15.2-8.9-17.3-15.7
		c-3.8-14-2-28.8,2.9-42.2c0.4-1.3,0.8-2.6,1.1-4c9.1-2.6,17.5-10.2,20.6-18.3c5.3-15.3-4.5-31.8-18.6-37.9
		c-16.5-6.8-34.8-2.4-50.8,4.2c-12.9,5.6-25.5,13.7-35.6,23.8c-7.7-3.8-16.4-5.4-25.1-4.6c-8.7,0.5-17.1,3.3-24.8,7.4
		c0.5,1.7,0.8,3.6,1,5.6c0,0.1,0,0.1,0,0.2c14.3-7.6,30.3-10.9,45.2-4.7c-1.6,1.8-3.1,3.6-4.5,5.4c-6.5,8.3-13.9,24.6-3.8,32.9
		c10.2,8.8,28.2,0.9,32.7-10.2c3.5-8.1-1.7-16.3-7.1-21.7c-2.5-2.8-5.2-5.1-8.1-7.1c0.4-0.4,0.8-0.8,1.1-1.1
		c15.8-14.7,37.4-26.2,59-28.2c22.5-1.8,50.7,21.5,30.3,43.2c-3.1,3.4-6.9,5.7-10.9,6.7c1-13.6-4.9-30.1-21.1-26.9
		c-16.3,3.5-2.6,26.3,6,30.6c3.3,1.6,6.9,2,10.5,1.6c-0.6,2-1.2,4-1.9,5.8c-6.2,17.3-8.2,61.1,18.9,61.3
		C586.3,175.5,591.2,147.3,572.3,149.6z M478,87.6c7.5,4.9,16.4,15.4,11.4,24.7c-3.1,5.7-11.1,8.1-17.4,8.3
		c-19.8-0.5-5.7-23.5,3.6-34.6C476.4,86.5,477.2,87.1,478,87.6z M538.3,94.7c-5.2-8.6,0.9-16.9,9.9-11.4c7.4,4.3,8.2,12.5,6.8,20.2
		C548.5,104,542.1,101.2,538.3,94.7z"/>
	<path class="st3" d="M89.1,536.2c-1.9,0.3-3.9,0.6-6,0.7c1.1-3.4,1.4-7,0.5-10.6c-2.4-9.4-22-27.3-28.7-12
		c-6.4,15.2,8.6,24.3,22.2,26c-1.8,3.7-4.8,7-8.8,9.3C42.9,565.3,25.7,533,32,511.3c6.4-20.7,22-39.6,39.5-52.1
		c0.4-0.3,0.8-0.6,1.3-0.9c1.4,3.3,3.2,6.4,5.4,9.4c4.3,6.4,11.3,13.1,19.9,11.3c11.7-2.2,23.1-18.2,16.5-30
		c-6.2-11.6-23.5-7.7-33-2.9c-2.1,1-4.2,2.1-6.2,3.3c-5-25.6,14.8-49,35.7-63.1c1.7-1.1,3.5-2.3,5.2-3.4c-0.3-0.5-0.5-1.1-0.8-1.6
		c-3.6,2-7.4,3.1-11.2,3.4c-2.7,2-5.3,4.1-7.9,6.3c-11.1,9.3-21.2,21.5-25,35.7c-2.5,8.5-2.7,17.3-0.5,25.6
		c-11.9,7.9-22.4,18.5-30.4,30.1c-9.6,14.4-17.7,31.4-14.3,49c3.1,15,17.4,28,33.4,25.8c8.6-1.4,17.8-8,22.1-16.5
		c1.4,0,2.8-0.1,4.1-0.2c14.1-2.1,29-0.9,41.9,5.6c6.2,3.4,17.3,11.5,11.9,20.1c-2.8,5-19.6,9.7-15.5-2c1.3-2.8-3.3-5.4-3.9-0.9
		c-6,18,22.6,18.9,25.4,3.7C150.5,540.3,107.2,533.6,89.1,536.2z M111.7,459.2c-1.4,6.1-5.4,13.5-11.6,15.4
		c-10.1,3-18.6-7.8-22-16.1c-0.4-0.9-0.7-1.8-1.1-2.7C89.8,448.9,115.2,439.6,111.7,459.2z M59.8,526.3c-3.6-9.9,5.7-14.3,13.1-7.4
		c5.7,5.1,7.1,11.9,5.3,18.1C70.4,536.8,62.5,534.4,59.8,526.3z"/>
	<path class="st3" d="M296.8,111.9c-5.2-1.3-10.4-2-15.8-1.9c-7.2-1.4-15,1.1-23,5c1.3,0.5,2.6,1.1,3.8,1.7
		c3.3-1.2,6.8-2.2,10.6-2.8c11.2-1.8,22.2,2.4,33.2,6.8c0.3-0.5,0.5-1,0.8-1.5C302.6,117.4,299.4,114.9,296.8,111.9z"/>
</g>
<path class="st4" d="M161.9,214c-4.1,8.7-8,17.4-11.2,26.4l0.9,2.8c5.8,17.8,19.4,23.4,29.8,24.9c22.2,3.3,49.8-8.5,62.8-26.9
	c6.1-8.7,11.5-22.5,2.6-39.1l-2.5-4.6l5.2,0.2c14.4,0.5,26.4-3.7,32.9-11.5c5.7-6.8,7.3-16.2,4.7-27.9c-3.7-17.9-17.3-32.8-33-38.3
	c-13.5,7.2-23.5,17.7-35.4,20.6c-3,0.7-4.1-4-1.1-4.7c10-2.4,21.4-10.4,32.8-17c-3.5-0.9-7-1.3-10.6-1.1l-3.8,0.2l0.8-3.7
	c3.3-16.2-5.1-33.1-21.3-43.1c-12.8-7.7-26.3-7.9-39.9-0.4c-11.3,6.2-22.3,17.4-31,31.7l-1.4,2.3l-2.5-1.2
	c-22.2-10.8-41.7-5.7-52.2,13.7c-8.6,15.5-8.9,39.5,16.2,60.2l3.4,2.8l-3.8,2.1c-15.9,8.9-19,20.5-18.8,28.6
	c0.3,13.4,9.6,26.9,23.2,33.7c11.8,5.9,24.6,5.4,35.7-1.3c3.5-10.9,8.5-21.5,13.2-31.5C158.8,209.2,163.2,211.3,161.9,214z"/>
<path class="st4" d="M150.4,239.4l0.3,1.1c3.2-9,7.1-17.7,11.2-26.4c1.3-2.8-3.1-4.8-4.4-2c-4.7,10-9.7,20.6-13.2,31.5
	c0.9-0.5,1.8-1.1,2.7-1.8L150.4,239.4z"/>
<path class="st4" d="M218.9,140.7c11.9-2.9,21.9-13.4,35.4-20.6c-1.2-0.4-2.5-0.8-3.7-1.1c-11.4,6.6-22.8,14.6-32.8,17
	C214.8,136.8,215.9,141.4,218.9,140.7z"/>
<g>
	<path class="st5" d="M118.6,185.9c4.8-1.6,4.9-8.6,0.6-11.1c-17.2-9.9-28.2-25.5-24.7-46c5.1-23.6,28.9-25.6,46.2-14.7
		c3.2,1.6,7.1,1.1,8.7-2.1c11.5-20.4,28.8-42.6,55.6-35.9c17.6,4.8,29.3,26.4,19.3,42.7c-3.3,5.4,2.4,11.7,8.1,9
		c19.1-7.4,35.1,8.7,43.1,24.7c13.7,30.3-16.7,35.1-39.2,30.9c-6.2-1.2-9.1,7.1-5.7,10.7c42.8,46.8-64.5,94-71.9,33.9
		c-0.4-3-1.5-3.8-3.6-4.6c-2.1-0.7-5.2-1.4-6.9,0.9C117,262.1,66.1,206.4,118.6,185.9z"/>
	<g>
		<path class="st4" d="M148.7,203.2c5.2-6.6,11.4-13.4,16.7-19.1c2.1,0.7,4.2,1.5,6.3,2.2c-1.9,9.2-3.7,18.5-2.5,28.3
			c0.7,5.9,9.5,3.8,8.7-2.1c-1-7.9,0.9-17.1,1.9-25.2c3-0.4,6.9-0.9,9.9-1.2c3.8,6.5,8.6,12.9,11.5,20.6c1.6,4.8,10.1,0.8,7.5-3.9
			c-2.9-7.6-6.8-14.2-11.5-20.6c1.7-2.2,3.5-4.4,4.2-6.5c7.3,2.1,14.4,3.2,22.5,4.2c5,0.4,6-7.8-0.1-9c-7.1-1.1-14.3-2.2-21.6-4.3
			c-0.2-2-0.5-3.9-1.7-5.8c6.5-3.8,12.9-8.6,19.5-12.4c4.7-2.6,0.8-10.1-3.9-7.5c-7.5,3.9-12.9,8.6-20.5,12.5c0,0,0,0-0.1-1
			c-3.4-3.6-6.6-5.2-10.7-5.7c1.1-7.1,2.1-15.3,4.2-22.5c1.4-5.2-7-8.1-8.3-2c-3,8.4-2.9,17.4-4.8,25.6c-2,0.2-3.8,1.5-6.7,2.8
			c-5.8-6.3-11.4-11.6-16.2-18c-3.6-4.6-9.9,1.2-6.3,5.8c4.8,6.4,11.4,11.6,16.1,17c-1.7,2.2-3.5,4.4-5.1,7.6
			c-7.1-1.1-14.2-1.3-22.2-1.3c-6-0.3-5.9,8.7,0.1,9c7,0.1,14.2,1.3,20.2,1.5c0.2,2,0.6,4.9,1.8,6.8c-6.2,6.8-12.3,13.5-17.4,21.2
			C137.8,203.5,144.3,207.7,148.7,203.2z"/>
	</g>
</g>
</svg>
