<?xml version="1.0" encoding="utf-8"?>
<!-- Generator: Adobe Illustrator 21.1.0, SVG Export Plug-In . SVG Version: 6.00 Build 0)  -->
<svg version="1.1" id="Layer_1" xmlns="http://www.w3.org/2000/svg" xmlns:xlink="http://www.w3.org/1999/xlink" x="0px" y="0px"
	 viewBox="0 0 690 636.4" style="enable-background:new 0 0 690 636.4;" xml:space="preserve">
<style type="text/css">
	.st0{fill:#CCAF66;}
	.st1{clip-path:url(#SVGID_2_);}
	.st2{clip-path:url(#SVGID_4_);}
	.st3{clip-path:url(#SVGID_6_);}
	.st4{clip-path:url(#SVGID_8_);}
	.st5{clip-path:url(#SVGID_10_);}
	.st6{clip-path:url(#SVGID_12_);}
</style>
<g>
	<path class="st0" d="M536.4,358.2c2.2,0,4.1,1.1,5.4,3c1.4,2.1,1.6,4.8,0.4,7c-1.9,3.6-6.7,4.9-10.1,2.7c-2.7-1.8-3.7-4.5-2.9-7.3
		C530.2,360.6,533.3,358.2,536.4,358.2z M536,367.4c0.8,0,1.7-0.5,2.1-1.3c0.3-0.5,0.5-1.3-0.2-2.2c-0.6-0.8-1.1-0.9-1.5-0.9
		c-1.1,0-2.4,1-2.7,2.1c-0.1,0.3-0.3,1.1,1,2C535.1,367.3,535.5,367.4,536,367.4z"/>
</g>
<g>
	<path class="st0" d="M248.4,484.9c-1.3,6.4,9.9,4.7,7.8-0.8C254.9,480.5,249.1,481.4,248.4,484.9z"/>
</g>
<g>
	<path class="st0" d="M144.4,222.4c-6.4,1.3-4.7-9.9,0.8-7.8C148.8,215.9,147.9,221.7,144.4,222.4z"/>
</g>
<g>
	<path class="st0" d="M337,63.5c-2.1-6.2,9.2-6,7.9-0.2C344,67,338.2,66.9,337,63.5z"/>
</g>
<g>
	<path class="st0" d="M608,145.8c-1.3-6.4,9.9-4.7,7.8,0.8C614.5,150.2,608.7,149.3,608,145.8z"/>
</g>
<g>
	<defs>
		<rect id="SVGID_1_" x="37" y="590.5" width="690" height="45.9"/>
	</defs>
	<clipPath id="SVGID_2_">
		<use xlink:href="#SVGID_1_"  style="overflow:visible;"/>
	</clipPath>
	<g class="st1">
		<path class="st0" d="M124.1,629.6L124.1,629.6c2.5,0,4.9,1.2,6.3,3.1c2.4,3.3,1.7,5.8,1.1,6.9c-1.1,2.2-3.7,3.5-6.8,3.5
			c-2.9,0-5.3-1.2-6.5-3.2c-0.8-1.4-1.5-3.8,0.4-7.1C119.5,630.8,121.6,629.6,124.1,629.6z M124.6,638.5c1.3,0,2.4-0.5,2.7-1
			c0.2-0.4-0.1-1.2-0.7-2.1c-0.5-0.7-1.5-1.2-2.5-1.2l0,0c-1.1,0-1.4,0.6-1.5,0.8c-0.6,1.1-0.8,2-0.5,2.5
			C122.4,638.1,123.4,638.5,124.6,638.5z"/>
	</g>
</g>
<g>
	<defs>
		<rect id="SVGID_3_" x="37" y="0" width="690" height="45.9"/>
	</defs>
	<clipPath id="SVGID_4_">
		<use xlink:href="#SVGID_3_"  style="overflow:visible;"/>
	</clipPath>
	<g class="st2">
		<path class="st0" d="M124.1-6.8L124.1-6.8c2.5,0,4.9,1.2,6.3,3.1c2.4,3.3,1.7,5.8,1.1,6.9c-1.1,2.2-3.7,3.5-6.8,3.5
			c-2.9,0-5.3-1.2-6.5-3.2c-0.8-1.4-1.5-3.8,0.4-7.1C119.5-5.6,121.6-6.8,124.1-6.8z M124.6,2.1c1.3,0,2.4-0.5,2.7-1
			c0.2-0.4-0.1-1.2-0.7-2.1c-0.5-0.7-1.5-1.2-2.5-1.2l0,0c-1.1,0-1.4,0.6-1.5,0.8c-0.6,1.1-0.8,2-0.5,2.5
			C122.4,1.7,123.4,2.1,124.6,2.1z"/>
	</g>
</g>
<g>
	<defs>
		<rect id="SVGID_5_" x="590.8" width="49.6" height="27.5"/>
	</defs>
	<clipPath id="SVGID_6_">
		<use xlink:href="#SVGID_5_"  style="overflow:visible;"/>
	</clipPath>
	<g class="st3">
		<path class="st0" d="M618.4-4.3c3.8,2.6,2.4,8.7-2.3,9.3C607.6,6,612.5-8.3,618.4-4.3z"/>
	</g>
</g>
<g>
	<defs>
		<rect id="SVGID_7_" x="590.8" y="608.9" width="49.6" height="27.5"/>
	</defs>
	<clipPath id="SVGID_8_">
		<use xlink:href="#SVGID_7_"  style="overflow:visible;"/>
	</clipPath>
	<g class="st4">
		<path class="st0" d="M618.4,632.1c3.8,2.6,2.4,8.7-2.3,9.3C607.6,642.4,612.5,628.1,618.4,632.1z"/>
	</g>
</g>
<g>
	<defs>
		<rect id="SVGID_9_" y="412.1" width="19.6" height="45.7"/>
	</defs>
	<clipPath id="SVGID_10_">
		<use xlink:href="#SVGID_9_"  style="overflow:visible;"/>
	</clipPath>
	<g class="st5">
		<path class="st0" d="M-3.9,435c-2.1-6.2,9.2-6,7.9-0.2C3.2,438.4-2.7,438.3-3.9,435z"/>
	</g>
</g>
<g>
	<defs>
		<rect id="SVGID_11_" x="670.4" y="412.1" width="19.6" height="45.7"/>
	</defs>
	<clipPath id="SVGID_12_">
		<use xlink:href="#SVGID_11_"  style="overflow:visible;"/>
	</clipPath>
	<g class="st6">
		<path class="st0" d="M685.9,435c-2.1-6.2,9.2-6,7.9-0.2C692.9,438.4,687.1,438.3,685.9,435z"/>
	</g>
</g>
</svg>
