<?xml version="1.0" encoding="utf-8"?>
<!-- Generator: Adobe Illustrator 22.0.1, SVG Export Plug-In . SVG Version: 6.00 Build 0)  -->
<svg version="1.1" id="Layer_1" xmlns="http://www.w3.org/2000/svg" xmlns:xlink="http://www.w3.org/1999/xlink" x="0px" y="0px"
	 viewBox="0 0 44.9 32.4" style="enable-background:new 0 0 44.9 32.4;" xml:space="preserve">
<style type="text/css">
	.st0{fill:#84D8D8;}
	.st1{fill:#D1F1F2;}
	.st2{fill:#455870;}
	.st3{fill:#CCAF66;}
</style>
<g>
	<g>
		<g>
			<g>
				<g>
					<path class="st0" d="M26.5,25.9c1.2,6.3,12.9,2.8,10.6-3.1c2.6,0.3,4.9-0.6,4.6-3.8c-0.3-2.4-2.1-4.7-4.5-4.9
						c0.6-1.7-0.2-3.7-1.7-4.9c-2.8-2.2-6,0-7.9,2.3c-2-1.3-4.3-1.3-5.8,0.8c-1.6,2.2-0.8,4.8,0.9,6.6C17.4,21.2,22,28.5,26.5,25.9z
						"/>
				</g>
			</g>
			<path class="st1" d="M24.2,20.1c0.5-0.1,0.6-0.8,0.2-1.1c-1.6-1.2-2.6-2.9-1.9-4.9c0.8-2.4,3.2-2.2,4.8-0.9
				c0.2,0.2,0.7,0.2,0.9-0.1c1.4-1.9,3.5-4,6-2.9c1.7,0.7,2.6,3,1.4,4.5c-0.5,0.5,0.1,1.2,0.7,1c2.1-0.6,3.4,1.3,4,3
				c1,3.1-2.1,3.3-4.3,2.6c-0.6-0.2-1,0.6-0.7,1c3.7,5.2-7.6,8.6-7.6,2.5c0-0.3-0.1-0.4-0.3-0.5c-0.2-0.2-0.5-0.2-0.7,0
				C23.1,27.4,18.7,21.2,24.2,20.1z"/>
			<g>
				<path class="st2" d="M26.2,21.5c0.6-0.7,1.3-1.3,2-1.9c-0.1-0.2-0.1-0.5-0.1-0.7c-0.6-0.1-1.3-0.3-2-0.4c-0.6-0.1-0.5-1,0.1-0.9
					c0.8,0.1,1.5,0.2,2.2,0.4c0.2-0.3,0.4-0.5,0.6-0.7c-0.4-0.6-1-1.2-1.4-1.9c-0.3-0.5,0.4-1,0.7-0.5c0.4,0.7,0.9,1.3,1.4,2
					c0.3-0.1,0.5-0.2,0.7-0.2c0.3-0.8,0.4-1.7,0.8-2.5c0.2-0.6,1-0.2,0.8,0.3c-0.3,0.7-0.5,1.5-0.7,2.2c0.4,0.1,0.7,0.3,1,0.7
					c0,0.1,0,0.1,0,0.1c0.8-0.3,1.4-0.7,2.2-1c0.5-0.2,0.8,0.6,0.3,0.8c-0.7,0.3-1.4,0.7-2.1,1c0.1,0.2,0.1,0.4,0.1,0.6
					c0.7,0.3,1.4,0.5,2.1,0.7c0.6,0.2,0.4,1-0.1,0.9c-0.8-0.2-1.5-0.4-2.2-0.7c-0.1,0.2-0.3,0.4-0.5,0.6c0.4,0.7,0.7,1.4,0.9,2.2
					c0.2,0.5-0.7,0.8-0.8,0.3c-0.2-0.8-0.6-1.5-0.9-2.2c-0.3,0-0.7,0-1,0c-0.2,0.8-0.5,1.7-0.5,2.5c0,0.6-0.9,0.7-0.9,0.1
					c0-1,0.3-1.9,0.6-2.8c-0.2-0.1-0.4-0.2-0.6-0.3c-0.6,0.5-1.3,1.1-1.9,1.7C26.6,22.3,25.9,21.8,26.2,21.5z"/>
			</g>
		</g>
		<g>
			<path class="st2" d="M19.4,17.8c0.7,0.1,1-1,0.4-1.1c-6.7-1.2-14.5-6.6-14-14.2C5.6,2.7,5.4,2.9,5.2,3.1c7,0.7,13.4,7,13.9,14.1
				c0.2-0.2,0.5-0.3,0.8-0.5c-3.1-2.3-6.1-5.5-8-8.9c-0.4-0.6-1.4,0-1,0.6c2,3.5,5.1,6.9,8.4,9.3c0.3,0.2,0.8-0.1,0.8-0.5
				C19.6,9.5,12.7,2.8,5.1,2C4.7,2,4.5,2.3,4.5,2.6C4.1,10.6,12.2,16.5,19.4,17.8L19.4,17.8z"/>
		</g>
		<g>
			<path class="st2" d="M19.4,18.2c0.7,0,0.7-1.1,0-1.1c-8.2-0.5-13.9,5.2-16.3,12.6C3,30,3.2,30.4,3.6,30.4c3.6-0.4,7.5-1,10.5-3.2
				c3.2-2.4,4.9-5.6,5.8-9.4c0.1-0.3-0.1-0.7-0.5-0.7c-4.4,0.5-6.6,4.2-9.5,7c-0.5,0.5,0.3,1.3,0.8,0.8
				C13.3,22.4,15.5,18.6,19.4,18.2c-0.2-0.3-0.4-0.5-0.5-0.6c-0.9,3.5-2.5,7-5.8,9c-2.9,1.7-6.2,2.3-9.5,2.7
				c0.1,0.2,0.3,0.5,0.5,0.7C6.4,23,11.7,17.7,19.4,18.2L19.4,18.2z"/>
		</g>
	</g>
	<g>
		<path class="st3" d="M5.9,17.4c0.8,0,1.1-0.8,0.9-1.4c-0.4-1.4-2.6-0.4-1.8,1C5.2,17.3,5.7,17.4,5.9,17.4z"/>
		<path class="st3" d="M39.5,11.7c0.8,0,1.1-0.8,0.9-1.4c-0.4-1.4-2.6-0.4-1.8,1C38.8,11.6,39.3,11.7,39.5,11.7z"/>
		<path class="st3" d="M3.3,17.3c1,0.2,1.2,2,0.1,2.2c-0.6,0.1-0.9-0.1-1.1-0.5C2,18.3,2.4,17.1,3.3,17.3z"/>
		<path class="st3" d="M18.4,27.4c0.7,0.1,0.8,1.3,0.1,1.4c-0.4,0.1-0.6,0-0.7-0.3C17.6,28.1,17.9,27.3,18.4,27.4z"/>
		<path class="st3" d="M3.8,14.6c-0.5-0.6-1.3-0.9-1.7-0.1c-0.3,0.6,0,1.2,0.7,1.3C3.6,16,4.4,15.3,3.8,14.6z"/>
		<path class="st3" d="M42.3,13.3c-0.5-0.6-1.3-0.9-1.7-0.1c-0.3,0.6,0,1.2,0.7,1.3C42.1,14.7,42.9,14,42.3,13.3z"/>
		<path class="st3" d="M21.4,27.9c-0.3-0.4-0.8-0.6-1.1-0.1c-0.2,0.4,0,0.8,0.5,0.9C21.3,28.8,21.8,28.4,21.4,27.9z"/>
		<path class="st3" d="M42.9,10.5c-0.3-0.4-0.9-0.6-1.2-0.1c-0.2,0.4,0,0.8,0.5,0.9C42.8,11.4,43.3,10.9,42.9,10.5z"/>
	</g>
</g>
</svg>
