<?xml version="1.0" encoding="utf-8"?>
<!-- Generator: Adobe Illustrator 21.1.0, SVG Export Plug-In . SVG Version: 6.00 Build 0)  -->
<svg version="1.1" id="Layer_1" xmlns="http://www.w3.org/2000/svg" xmlns:xlink="http://www.w3.org/1999/xlink" x="0px" y="0px"
	 viewBox="0 0 253.1 57" style="enable-background:new 0 0 253.1 57;" xml:space="preserve">
<style type="text/css">
	.st0{fill:#84D8D8;}
	.st1{fill:#D1F1F2;}
	.st2{fill:#455870;}
	.st3{fill:#ED8A6B;}
	.st4{fill:#FFF8F6;}
	.st5{fill:#CCAF66;}
	.st6{fill:#FFB9A0;}
</style>
<g>
	<g>
		<g>
			<g>
				<path class="st0" d="M155.8,22.1c1.7-1.8,2.5-4.4,0.9-6.6c-1.5-2.1-3.8-2.1-5.8-0.8c-1.9-2.3-5.1-4.5-7.9-2.3
					c-1.5,1.2-2.3,3.2-1.7,4.9c-2.4,0.2-4.2,2.5-4.5,4.9c-0.3,3.2,2,4.1,4.6,3.8c-2.3,5.9,9.4,9.4,10.6,3.1
					C156.5,31.7,161.1,24.4,155.8,22.1z"/>
			</g>
		</g>
		<path class="st1" d="M151.8,27.5c-0.2-0.2-0.5-0.2-0.7,0c-0.2,0.1-0.3,0.2-0.3,0.5c0,6.1-11.3,2.7-7.6-2.5c0.3-0.4-0.1-1.2-0.7-1
			c-2.2,0.7-5.3,0.5-4.3-2.6c0.6-1.7,1.9-3.6,4-3c0.6,0.2,1.2-0.5,0.7-1c-1.2-1.5-0.3-3.8,1.4-4.5c2.5-1.1,4.6,1,6,2.9
			c0.2,0.3,0.7,0.3,0.9,0.1c1.6-1.3,4-1.5,4.8,0.9c0.7,2-0.3,3.7-1.9,4.9c-0.4,0.3-0.3,1,0.2,1.1C159.8,24.4,155.4,30.6,151.8,27.5z
			"/>
		<g>
			<path class="st2" d="M151.5,25.1c-0.6-0.6-1.3-1.2-1.9-1.7c-0.2,0.1-0.4,0.2-0.6,0.3c0.3,0.9,0.6,1.8,0.6,2.8
				c0,0.6-0.9,0.5-0.9-0.1c0-0.8-0.3-1.7-0.5-2.5c-0.3,0-0.7,0-1,0c-0.3,0.7-0.7,1.4-0.9,2.2c-0.1,0.5-1,0.2-0.8-0.3
				c0.2-0.8,0.5-1.5,0.9-2.2c-0.2-0.2-0.4-0.4-0.5-0.6c-0.7,0.3-1.4,0.5-2.2,0.7c-0.5,0.1-0.7-0.7-0.1-0.9c0.7-0.2,1.4-0.4,2.1-0.7
				c0-0.2,0-0.4,0.1-0.6c-0.7-0.3-1.4-0.7-2.1-1c-0.5-0.2-0.2-1,0.3-0.8c0.8,0.3,1.4,0.7,2.2,1c0,0,0,0,0-0.1c0.3-0.4,0.6-0.6,1-0.7
				c-0.2-0.7-0.4-1.5-0.7-2.2c-0.2-0.5,0.6-0.9,0.8-0.3c0.4,0.8,0.5,1.7,0.8,2.5c0.2,0,0.4,0.1,0.7,0.2c0.5-0.7,1-1.3,1.4-2
				c0.3-0.5,1,0,0.7,0.5c-0.4,0.7-1,1.3-1.4,1.9c0.2,0.2,0.4,0.4,0.6,0.7c0.7-0.2,1.4-0.3,2.2-0.4c0.6-0.1,0.7,0.8,0.1,0.9
				c-0.7,0.1-1.4,0.3-2,0.4c0,0.2,0,0.5-0.1,0.7c0.7,0.6,1.4,1.2,2,1.9C152.6,25,151.9,25.5,151.5,25.1z"/>
		</g>
	</g>
	<path class="st3" d="M133.6,20.3c-2.5-2.8-6.1,0.6-7.5,3.6c-1.1-2.9-3.7-6.7-6.1-4.4c-1.5,1.4-0.8,4.8,0,6.3
		c1.4,2.9,3.6,5.7,6.4,7.3c0.6,0.3,1.1-0.4,0.7-0.8C129.3,29.5,137.1,24.2,133.6,20.3z"/>
	<g>
		<path class="st4" d="M159.1,21c7.2-1.3,15.3-7.2,14.9-15.2c0-0.3-0.2-0.6-0.6-0.6c-7.6,0.8-14.5,7.5-15,15.2
			c0,0.4,0.5,0.7,0.8,0.5c3.3-2.4,6.4-5.8,8.4-9.3c0.4-0.6-0.6-1.2-1-0.6c-1.9,3.4-4.9,6.6-8,8.9c0.3,0.2,0.6,0.3,0.8,0.5
			c0.5-7.1,6.9-13.4,13.9-14.1c-0.2-0.2-0.4-0.4-0.6-0.6c0.5,7.6-7.3,13-14,14.2C158.1,20,158.4,21.1,159.1,21L159.1,21z"/>
	</g>
	<g>
		<path class="st4" d="M160.3,21.2c7.7-0.5,13,4.8,15.3,11.8c0.2-0.2,0.4-0.5,0.5-0.7c-3.3-0.4-6.6-1-9.5-2.7c-3.3-2-4.9-5.5-5.8-9
			C160.7,20.7,160.5,20.9,160.3,21.2c3.9,0.4,6.1,4.2,8.7,6.7c0.5,0.5,1.3-0.3,0.8-0.8c-2.9-2.8-5.1-6.5-9.5-7
			c-0.4,0-0.6,0.4-0.5,0.7c0.9,3.8,2.6,7,5.8,9.4c3,2.2,6.9,2.8,10.5,3.2c0.4,0,0.6-0.4,0.5-0.7c-2.4-7.4-8.1-13.1-16.3-12.6
			C159.6,20.1,159.6,21.2,160.3,21.2L160.3,21.2z"/>
	</g>
	<g>
		<path class="st4" d="M167.1,21.1c9.1,2,18.1-4.9,21.2-13.2c0.1-0.4-0.3-0.8-0.7-0.7c-8,2.9-16.3,5.3-20.9,13.1
			c-0.3,0.6,0.4,1.1,0.9,0.7c3.5-2.9,8.1-4,11.8-6.6c0.6-0.4,0-1.4-0.6-1c-3.8,2.7-8.4,3.8-12,6.8c0.3,0.2,0.6,0.4,0.9,0.7
			c4.5-7.6,12.5-9.7,20.2-12.6c-0.2-0.2-0.5-0.5-0.7-0.7c-2.9,7.7-11.4,14.3-19.9,12.4C166.7,19.9,166.4,21,167.1,21.1L167.1,21.1z"
			/>
	</g>
	<g>
		<path class="st4" d="M235.1,47.2c2.8,0.3,0.2,3.3-1.1,3.4c-2.3,0.3-2.9-2.8-3-4.4c-0.1-3.3,1.1-6.5,2.9-9.2
			c1.8-2.8,2.2-8.7-2.4-8.9c-3.8-0.1-2,5.7-0.3,7.1c2.6,2.1,7,0.5,8.7-2c2-3.1,0.7-7.3-2.1-9.4c-3.3-2.4-7.6-2.4-11.5-1.8
			c-4.1,0.7-8.3,2.4-11.5,5c-1.9,1.5-4.4,4.7-2.6,7.1c1.8,2.5,6.2,1.7,7.8-0.5c1.2-1.6,0.5-3.7-0.4-5.2c-1.6-3-4.5-4.9-7.8-5.4
			c-3.3-0.6-6.8,0.3-9.8,1.7c-1.7,0.8-3.3,1.6-4.8,2.7c-3.1,2-6.4,2.4-9.9,1.7c-5.4-1.1-9.6-5-14.5-7.2c-4.2-1.9-9.2-1.9-13.7-1.9
			c-0.7,0-0.7,1.1,0,1.1c3.9,0,7.8,0.1,11.6,1.2c4,1.2,7.4,4.1,11.1,5.9c2.8,1.4,5.7,2.3,8.9,2.4c3.4,0.1,6.1-1.6,8.9-3.3
			c5.5-3.3,13.3-5.2,18.1,0.2c1.4,1.5,2.8,4.3,1.2,6.1c-1,1.1-2.9,1.2-4.3,0.9c-5.2-1.4,2-7.3,3.9-8.3c4.3-2.4,9.7-3.8,14.6-3.1
			c5.1,0.8,10.1,7.5,4.4,11.2c-2.5,1.7-5.9,1-6.8-2c-0.7-2.2,1.1-3.7,2.8-2c2.1,2,0.5,5.1-0.8,7c-2.3,3.5-5.1,13.1,0.9,14.6
			c3.4,0.9,6-5.1,1.7-5.6C234.4,46,234.4,47.2,235.1,47.2L235.1,47.2z"/>
	</g>
	<g>
		<path class="st4" d="M210.3,23.2c1.4-0.1,2.3-1.4,3-2.5c1.1-1.8,1.1-4,0.5-6c-0.1-0.4-0.6-0.5-0.9-0.2c-2.5,2.1-4.9,5.1-3,8.4
			c0.3,0.5,1,0.2,1-0.3c0.1-1.2,1-2.5,1.5-3.6c0.3-0.6-0.6-1.2-1-0.6c-0.7,1.3-1.6,2.7-1.7,4.2c0.3-0.1,0.7-0.2,1-0.3
			c-1.5-2.8,0.8-5.3,2.9-7.1c-0.3-0.1-0.6-0.2-0.9-0.2c0.5,1.6,0.5,3.2-0.2,4.8c-0.4,0.8-1.2,2.2-2.2,2.3
			C209.6,22.2,209.6,23.3,210.3,23.2L210.3,23.2z"/>
	</g>
	<g>
		<path class="st4" d="M240.6,30.2c3.6,0.1,6,1.7,6.5,5.4c0.2-0.2,0.4-0.4,0.6-0.6c-3.1-0.4-6.7-1.7-6.5-5.4
			c-0.3,0.2-0.6,0.3-0.8,0.5c1.3,0.8,2.8,1.4,4,2.5c0.5,0.5,1.3-0.3,0.8-0.8c-1.2-1.1-2.8-1.8-4.2-2.7c-0.4-0.2-0.8,0.1-0.8,0.5
			c-0.2,4.4,3.9,6,7.6,6.5c0.3,0,0.6-0.3,0.6-0.6c-0.2-1.8-0.8-3.5-2.1-4.7c-1.5-1.4-3.6-1.7-5.5-1.7
			C239.9,29.1,239.9,30.2,240.6,30.2L240.6,30.2z"/>
	</g>
	<g>
		<path class="st4" d="M189.2,30.4c3.7,1,3.9,6.6,2.1,9.3c0.3,0,0.6-0.1,0.9-0.1c-2.2-2.7-4.4-5.9-2.4-9.4c-0.3,0-0.7-0.1-1-0.1
			c0.5,2.3,1.1,4.6,2,6.8c0.3,0.6,1.3,0.4,1.1-0.3c-0.9-2.2-1.5-4.5-2-6.8c-0.1-0.5-0.8-0.5-1-0.1c-2.3,3.9-0.1,7.6,2.5,10.7
			c0.2,0.3,0.7,0.2,0.9-0.1c2.2-3.2,1.6-9.7-2.8-10.9C188.8,29.2,188.5,30.3,189.2,30.4L189.2,30.4z"/>
	</g>
	<g>
		<path class="st5" d="M135.1,15.8c-1.6-0.2-1-2.5,0.4-2c0.6,0.2,1.1,1,0.6,1.5C135.8,15.6,135.5,15.9,135.1,15.8z"/>
		<path class="st5" d="M135,19.2c0.4,0.1,0.8,0,1.1-0.6c0.6-1-1-2-1.8-1.3C133.6,18,134.2,19,135,19.2z"/>
		<path class="st5" d="M132.8,16.8c-0.5,0.5-1.2,0.4-1.5-0.3c-0.4-0.8,0.4-1.3,1.1-1.3C133.4,15.3,133.4,16.3,132.8,16.8z"/>
		<path class="st5" d="M199,23.7c-0.7-1.5,1.9-2.4,2-0.8C201.1,23.9,199.6,24.8,199,23.7z"/>
		<path class="st5" d="M203.1,20.7c0.3,0.2,0.5,0.5,0.4,0.9c-0.3,1.1-2.1,0.7-1.7-0.5C202,20.6,202.6,20.5,203.1,20.7z"/>
		<path class="st5" d="M221.5,35c-0.6,0.1-1.4,0.8-0.9,1.4c0.3,0.3,1,0.6,1.4,0.3C222.6,36.3,222.5,34.8,221.5,35z"/>
		<path class="st5" d="M238.1,22.4c0.3,0.4,1,0.4,1.2-0.1C240,20.9,237.1,21.2,238.1,22.4z"/>
		<path class="st5" d="M240.9,24.5c0.7-0.2,0.5-1.2-0.2-1.3C239.8,23.2,240,24.7,240.9,24.5z"/>
		<path class="st5" d="M241.3,20.5c0.5,0.1,0.9,0.7,0.6,1.1c-0.3,0.4-1.1,0.6-1.4,0.1C240.2,21.1,240.8,20.4,241.3,20.5z"/>
		<path class="st5" d="M142.5,33.2c0,0.8-1.3,0.5-1.1-0.3C141.5,32.2,142.4,32.6,142.5,33.2z"/>
		<path class="st5" d="M140.4,31.1c-0.7-0.6-1.4,0.4-0.8,1C140.2,32.8,141.2,31.7,140.4,31.1z"/>
		<path class="st5" d="M140.2,33.8c-0.1-0.2-0.3-0.3-0.6-0.3c-0.9,0-0.9,1-0.1,1.3C140.2,35,140.5,34.2,140.2,33.8z"/>
	</g>
	<g>
		<g>
			<g>
				<path class="st0" d="M101.2,29.2c1.2,6.2,12.9,2.8,10.6-3.1c2.5,0.4,4.9-0.6,4.6-3.8c-0.2-2.4-2.1-4.7-4.5-4.9
					c0.6-1.8-0.2-3.7-1.7-4.9c-2.8-2.2-6-0.1-7.9,2.3c-2-1.3-4.3-1.3-5.8,0.8c-1.6,2.2-0.8,4.8,0.9,6.6
					C92,24.4,96.6,31.7,101.2,29.2z"/>
			</g>
		</g>
		<path class="st1" d="M98.9,23c0.5-0.1,0.6-0.8,0.2-1.1c-1.6-1.2-2.5-2.9-1.9-4.9c0.8-2.3,3.2-2.2,4.8-0.9c0.3,0.2,0.7,0.2,0.9-0.1
			c1.4-1.9,3.4-3.9,6-2.9c1.7,0.7,2.6,3,1.4,4.5c-0.4,0.5,0.1,1.2,0.7,1c2-0.5,3.4,1.3,4,3c1,3.2-2.1,3.3-4.3,2.6
			c-0.6-0.2-1,0.6-0.7,1c3.7,5.2-7.6,8.6-7.6,2.5c0-0.3-0.1-0.4-0.3-0.5c-0.2-0.1-0.5-0.2-0.7,0C97.8,30.6,93.4,24.4,98.9,23z"/>
		<g>
			<path class="st2" d="M101.7,25.1c0.6-0.6,1.3-1.2,1.9-1.7c0.2,0.1,0.4,0.2,0.6,0.3c-0.3,0.9-0.6,1.8-0.6,2.8
				c0,0.6,0.9,0.5,0.9-0.1c0-0.8,0.3-1.7,0.5-2.5c0.3,0,0.7,0,1,0c0.3,0.7,0.7,1.4,0.9,2.2c0.1,0.5,1,0.2,0.8-0.3
				c-0.2-0.8-0.5-1.5-0.9-2.2c0.2-0.2,0.4-0.4,0.5-0.6c0.7,0.3,1.4,0.5,2.2,0.7c0.5,0.1,0.7-0.7,0.1-0.9c-0.7-0.2-1.4-0.4-2.1-0.7
				c0-0.2,0-0.4-0.1-0.6c0.7-0.3,1.4-0.7,2.1-1c0.5-0.2,0.2-1-0.3-0.8c-0.8,0.3-1.4,0.7-2.2,1c0,0,0,0,0-0.1c-0.3-0.4-0.6-0.6-1-0.7
				c0.2-0.7,0.4-1.5,0.7-2.2c0.2-0.5-0.6-0.9-0.8-0.3c-0.4,0.8-0.5,1.7-0.8,2.5c-0.2,0-0.4,0.1-0.7,0.2c-0.5-0.7-1-1.3-1.4-2
				c-0.3-0.5-1,0-0.7,0.5c0.4,0.7,1,1.3,1.4,1.9c-0.2,0.2-0.4,0.4-0.6,0.7c-0.7-0.2-1.4-0.3-2.2-0.4c-0.6-0.1-0.7,0.8-0.1,0.9
				c0.7,0.1,1.4,0.3,2,0.4c0,0.2,0,0.5,0.1,0.7c-0.7,0.6-1.4,1.2-2,1.9C100.6,25,101.2,25.5,101.7,25.1z"/>
		</g>
	</g>
	<g>
		<path class="st4" d="M94.1,21c-7.2-1.3-15.3-7.2-14.9-15.2c0-0.3,0.2-0.6,0.6-0.6c7.6,0.8,14.5,7.5,15,15.2c0,0.4-0.5,0.7-0.8,0.5
			c-3.3-2.4-6.4-5.8-8.4-9.3c-0.4-0.6,0.6-1.2,1-0.6c1.9,3.4,4.9,6.6,8,8.9c-0.3,0.2-0.6,0.3-0.8,0.5c-0.6-7-7.1-13.4-14-14.1
			c0.2-0.2,0.4-0.4,0.6-0.6c-0.5,7.6,7.3,13,14,14.2C95.1,20,94.8,21.1,94.1,21L94.1,21z"/>
	</g>
	<g>
		<path class="st4" d="M92.8,21.2c-7.7-0.5-13,4.8-15.3,11.8c-0.2-0.2-0.4-0.5-0.5-0.7c3.3-0.4,6.6-1,9.5-2.7c3.3-2,4.9-5.5,5.8-9
			C92.5,20.7,92.6,20.9,92.8,21.2c-3.9,0.4-6.1,4.2-8.7,6.7c-0.5,0.5-1.3-0.3-0.8-0.8c2.9-2.8,5.1-6.5,9.5-7c0.4,0,0.6,0.4,0.5,0.7
			c-0.9,3.8-2.6,7-5.8,9.4c-3,2.2-6.9,2.8-10.5,3.2c-0.4,0-0.6-0.4-0.5-0.7c2.4-7.4,8.1-13.1,16.3-12.6
			C93.5,20.1,93.5,21.2,92.8,21.2L92.8,21.2z"/>
	</g>
	<g>
		<path class="st4" d="M86,21.1c-9.1,2-18.1-4.9-21.2-13.2c-0.1-0.4,0.3-0.8,0.7-0.7c8,2.9,16.3,5.3,20.9,13.1
			c0.3,0.6-0.4,1.1-0.9,0.7c-3.5-2.9-8.1-4-11.8-6.6c-0.6-0.4,0-1.4,0.6-1c3.8,2.7,8.4,3.8,12,6.8c-0.3,0.2-0.6,0.4-0.9,0.7
			c-4.5-7.6-12.5-9.7-20.2-12.6c0.2-0.2,0.5-0.5,0.7-0.7c2.9,7.7,11.4,14.3,19.9,12.4C86.4,19.9,86.7,21,86,21.1L86,21.1z"/>
	</g>
	<g>
		<path class="st4" d="M18,47.2c-2.8,0.3-0.2,3.3,1.1,3.4c2.3,0.3,2.9-2.8,3-4.4c0.1-3.3-1.1-6.5-2.9-9.2c-1.8-2.8-2.2-8.7,2.4-8.9
			c3.8-0.1,2,5.7,0.3,7.1c-2.6,2.1-7,0.5-8.7-2c-2-3.1-0.7-7.3,2.1-9.4c3.3-2.4,7.6-2.4,11.5-1.8c4.1,0.7,8.3,2.4,11.5,5
			c1.9,1.5,4.4,4.7,2.6,7.1c-1.8,2.5-6.2,1.7-7.8-0.5c-1.2-1.6-0.5-3.7,0.4-5.2c1.6-3,4.5-4.9,7.8-5.4c3.3-0.6,6.8,0.3,9.8,1.7
			c1.7,0.8,3.3,1.6,4.8,2.7c3.1,2,6.4,2.4,9.9,1.7c5.4-1.1,9.6-5,14.5-7.2C84.5,20,89.5,20,94,20c0.7,0,0.7,1.1,0,1.1
			c-3.9,0-7.8,0.1-11.6,1.2c-4,1.2-7.4,4.1-11.1,5.9c-2.8,1.4-5.7,2.3-8.9,2.4c-3.4,0.1-6.1-1.6-8.9-3.3C48,24,40.2,22.1,35.4,27.5
			c-1.4,1.5-2.8,4.3-1.2,6.1c1,1.1,2.9,1.2,4.3,0.9c5.2-1.4-2-7.3-3.9-8.3c-4.3-2.4-9.7-3.8-14.6-3.1c-5.1,0.8-10.1,7.5-4.4,11.2
			c2.5,1.7,5.9,1,6.8-2c0.7-2.2-1.1-3.7-2.8-2c-2.1,2-0.5,5.1,0.8,7c2.3,3.5,5.1,13.1-0.9,14.6c-3.4,0.9-6-5.1-1.7-5.6
			C18.8,46,18.7,47.2,18,47.2L18,47.2z"/>
	</g>
	<g>
		<path class="st4" d="M42.8,23.2c-1.4-0.1-2.3-1.4-3-2.5c-1.1-1.8-1.1-4-0.5-6c0.1-0.4,0.6-0.5,0.9-0.2c2.5,2.1,4.9,5.1,3,8.4
			c-0.3,0.5-1,0.2-1-0.3c-0.1-1.2-1-2.5-1.5-3.6c-0.3-0.6,0.6-1.2,1-0.6c0.7,1.3,1.6,2.7,1.7,4.2c-0.3-0.1-0.7-0.2-1-0.3
			c1.5-2.8-0.8-5.3-2.9-7.1c0.3-0.1,0.6-0.2,0.9-0.2c-0.5,1.6-0.5,3.2,0.2,4.8c0.4,0.8,1.2,2.2,2.2,2.3
			C43.5,22.2,43.5,23.3,42.8,23.2L42.8,23.2z"/>
	</g>
	<g>
		<path class="st4" d="M12.5,30.2c-3.6,0.1-6,1.7-6.5,5.4c-0.2-0.2-0.4-0.4-0.6-0.6c3.1-0.4,6.7-1.7,6.5-5.4
			c0.3,0.2,0.6,0.3,0.8,0.5c-1.3,0.8-2.8,1.4-4,2.5c-0.5,0.5-1.3-0.3-0.8-0.8c1.2-1.1,2.8-1.8,4.2-2.7c0.4-0.2,0.8,0.1,0.8,0.5
			c0.2,4.4-3.9,6-7.6,6.5c-0.3,0-0.6-0.3-0.6-0.6c0.2-1.8,0.8-3.5,2.1-4.7c1.5-1.4,3.6-1.7,5.5-1.7C13.2,29.1,13.2,30.2,12.5,30.2
			L12.5,30.2z"/>
	</g>
	<g>
		<path class="st4" d="M64,30.4c-3.7,1-3.9,6.6-2.1,9.3c-0.3,0-0.6-0.1-0.9-0.1c2.2-2.7,4.4-5.9,2.4-9.4c0.3,0,0.7-0.1,1-0.1
			c-0.5,2.3-1.1,4.6-2,6.8c-0.3,0.6-1.3,0.4-1.1-0.3c0.9-2.2,1.5-4.5,2-6.8c0.1-0.5,0.8-0.5,1-0.1c2.3,3.9,0.1,7.6-2.5,10.7
			c-0.2,0.3-0.7,0.2-0.9-0.1c-2.2-3.2-1.6-9.7,2.8-10.9C64.4,29.2,64.6,30.3,64,30.4L64,30.4z"/>
	</g>
	<g>
		<path class="st5" d="M115.6,31.9c0.8-1.4-1.4-2.4-1.8-1c-0.2,0.6,0.1,1.4,0.9,1.4C114.9,32.3,115.4,32.2,115.6,31.9z"/>
		<path class="st5" d="M118.3,33.9c-0.2,0.4-0.5,0.6-1.1,0.5c-1.1-0.2-0.9-2,0.1-2.2C118.2,32,118.6,33.2,118.3,33.9z"/>
		<path class="st5" d="M117.8,30.7c0.7-0.1,1-0.7,0.7-1.3c-0.4-0.8-1.2-0.5-1.7,0.1C116.2,30.2,117,30.9,117.8,30.7z"/>
		<path class="st5" d="M54.1,23.7c0.7-1.5-1.9-2.4-2-0.8C52,23.9,53.6,24.8,54.1,23.7z"/>
		<path class="st5" d="M50.1,20.7c-0.3,0.2-0.5,0.5-0.4,0.9c0.3,1.1,2.1,0.7,1.7-0.5C51.2,20.6,50.5,20.5,50.1,20.7z"/>
		<path class="st5" d="M31.6,35c0.6,0.1,1.4,0.8,0.9,1.4c-0.3,0.3-1,0.6-1.4,0.3C30.5,36.3,30.7,34.8,31.6,35z"/>
		<path class="st5" d="M15.1,22.4c-0.3,0.4-1,0.4-1.2-0.1C13.2,20.9,16,21.2,15.1,22.4z"/>
		<path class="st5" d="M12.2,24.5c-0.7-0.2-0.5-1.2,0.2-1.3C13.3,23.2,13.2,24.7,12.2,24.5z"/>
		<path class="st5" d="M11.8,20.5c-0.5,0.1-0.9,0.7-0.6,1.1c0.3,0.4,1.1,0.6,1.4,0.1C13,21.1,12.4,20.4,11.8,20.5z"/>
		<path class="st5" d="M99.8,11.3c0,0.8-1.3,0.5-1.1-0.3C98.9,10.3,99.8,10.7,99.8,11.3z"/>
		<path class="st5" d="M97.8,9.2c-0.7-0.6-1.4,0.4-0.8,1C97.6,10.9,98.6,9.8,97.8,9.2z"/>
		<path class="st5" d="M97.6,11.8c-0.1-0.2-0.3-0.3-0.6-0.3c-0.9,0-0.9,1-0.1,1.3C97.6,13.1,97.9,12.3,97.6,11.8z"/>
	</g>
	<path class="st6" d="M133,23.7c-0.4,1.9-2.8,3.8-4.1,5.1c-0.9,0.9-1.9,1.8-2.7,2.9c-3-2-5.9-5.9-5.9-9.5c0-2.6,1.7-2.4,3.1-0.9
		c1.2,1.2,2,3,2.1,4.7c0,0.7,1.1,0.7,1.1,0c0-2,1.2-3.5,2.7-4.7C131.6,19.8,133.6,20.9,133,23.7z"/>
</g>
</svg>
