<?xml version="1.0" encoding="utf-8"?>
<!-- Generator: Adobe Illustrator 21.1.0, SVG Export Plug-In . SVG Version: 6.00 Build 0)  -->
<svg version="1.1" id="Layer_1" xmlns="http://www.w3.org/2000/svg" xmlns:xlink="http://www.w3.org/1999/xlink" x="0px" y="0px"
	 viewBox="0 0 44.9 32.4" style="enable-background:new 0 0 44.9 32.4;" xml:space="preserve">
<style type="text/css">
	.st0{fill:#84D8D8;}
	.st1{fill:#D1F1F2;}
	.st2{fill:#455870;}
	.st3{fill:#CCAF66;}
</style>
<g>
	<g>
		<g>
			<g>
				<g>
					<path class="st0" d="M22.3,18.9c1.7-1.8,2.5-4.4,0.9-6.6c-1.5-2.1-3.8-2.1-5.8-0.8C15.5,9.2,12.3,7,9.5,9.2
						c-1.5,1.2-2.3,3.2-1.7,4.9c-2.4,0.2-4.2,2.5-4.5,4.9c-0.3,3.2,2,4.1,4.6,3.8c-2.3,5.9,9.4,9.4,10.6,3.1
						C23,28.5,27.6,21.2,22.3,18.9z"/>
				</g>
			</g>
			<path class="st1" d="M18.3,24.3c-0.2-0.2-0.5-0.2-0.7,0c-0.2,0.1-0.3,0.2-0.3,0.5c0,6.1-11.3,2.7-7.6-2.5c0.3-0.4-0.1-1.2-0.7-1
				c-2.2,0.7-5.3,0.5-4.3-2.6c0.6-1.7,1.9-3.6,4-3c0.6,0.2,1.2-0.5,0.7-1c-1.2-1.5-0.3-3.8,1.4-4.5c2.5-1.1,4.6,1,6,2.9
				c0.2,0.3,0.7,0.3,0.9,0.1c1.6-1.3,4-1.5,4.8,0.9c0.7,2-0.3,3.7-1.9,4.9c-0.4,0.3-0.3,1,0.2,1.1C26.3,21.2,21.9,27.4,18.3,24.3z"
				/>
			<g>
				<path class="st2" d="M18,21.9c-0.6-0.6-1.3-1.2-1.9-1.7c-0.2,0.1-0.4,0.2-0.6,0.3c0.3,0.9,0.6,1.8,0.6,2.8
					c0,0.6-0.9,0.5-0.9-0.1c0-0.8-0.3-1.7-0.5-2.5c-0.3,0-0.7,0-1,0c-0.3,0.7-0.7,1.4-0.9,2.2c-0.1,0.5-1,0.2-0.8-0.3
					c0.2-0.8,0.5-1.5,0.9-2.2c-0.2-0.2-0.4-0.4-0.5-0.6c-0.7,0.3-1.4,0.5-2.2,0.7c-0.5,0.1-0.7-0.7-0.1-0.9c0.7-0.2,1.4-0.4,2.1-0.7
					c0-0.2,0-0.4,0.1-0.6c-0.7-0.3-1.4-0.7-2.1-1c-0.5-0.2-0.2-1,0.3-0.8c0.8,0.3,1.4,0.7,2.2,1c0,0,0,0,0-0.1
					c0.3-0.4,0.6-0.6,1-0.7c-0.2-0.7-0.4-1.5-0.7-2.2c-0.2-0.5,0.6-0.9,0.8-0.3c0.4,0.8,0.5,1.7,0.8,2.5c0.2,0,0.4,0.1,0.7,0.2
					c0.5-0.7,1-1.3,1.4-2c0.3-0.5,1,0,0.7,0.5c-0.4,0.7-1,1.3-1.4,1.9c0.2,0.2,0.4,0.4,0.6,0.7c0.7-0.2,1.4-0.3,2.2-0.4
					c0.6-0.1,0.7,0.8,0.1,0.9c-0.7,0.1-1.4,0.3-2,0.4c0,0.2,0,0.5-0.1,0.7c0.7,0.6,1.4,1.2,2,1.9C19.1,21.8,18.4,22.3,18,21.9z"/>
			</g>
		</g>
		<g>
			<path class="st2" d="M25.6,17.8c7.2-1.3,15.3-7.2,14.9-15.2c0-0.3-0.2-0.6-0.6-0.6c-7.6,0.8-14.5,7.5-15,15.2
				c0,0.4,0.5,0.7,0.8,0.5c3.3-2.4,6.4-5.8,8.4-9.3c0.4-0.6-0.6-1.2-1-0.6c-1.9,3.4-4.9,6.6-8,8.9c0.3,0.2,0.6,0.3,0.8,0.5
				c0.5-7.1,6.9-13.4,13.9-14.1c-0.2-0.2-0.4-0.4-0.6-0.6c0.5,7.6-7.3,13-14,14.2C24.6,16.8,24.9,17.9,25.6,17.8L25.6,17.8z"/>
		</g>
		<g>
			<path class="st2" d="M25.6,18.2c7.7-0.5,13,4.8,15.3,11.8c0.2-0.2,0.4-0.5,0.5-0.7c-3.3-0.4-6.6-1-9.5-2.7c-3.3-2-4.9-5.5-5.8-9
				C26,17.7,25.8,17.9,25.6,18.2c3.9,0.4,6.1,4.2,8.7,6.7c0.5,0.5,1.3-0.3,0.8-0.8c-2.9-2.8-5.1-6.5-9.5-7c-0.4,0-0.6,0.4-0.5,0.7
				c0.9,3.8,2.6,7,5.8,9.4c3,2.2,6.9,2.8,10.5,3.2c0.4,0,0.6-0.4,0.5-0.7c-2.4-7.4-8.1-13.1-16.3-12.6
				C24.9,17.1,24.9,18.2,25.6,18.2L25.6,18.2z"/>
		</g>
	</g>
	<g>
		<path class="st3" d="M40,17c0.8-1.4-1.4-2.4-1.8-1c-0.2,0.6,0.1,1.4,0.9,1.4C39.3,17.4,39.8,17.3,40,17z"/>
		<path class="st3" d="M6.4,11.3c0.8-1.4-1.4-2.4-1.8-1c-0.2,0.6,0.1,1.4,0.9,1.4C5.7,11.7,6.2,11.6,6.4,11.3z"/>
		<path class="st3" d="M42.7,19c-0.2,0.4-0.5,0.6-1.1,0.5c-1.1-0.2-0.9-2,0.1-2.2C42.6,17.1,43,18.3,42.7,19z"/>
		<path class="st3" d="M27.2,28.5c-0.1,0.3-0.3,0.4-0.7,0.3c-0.7-0.1-0.6-1.3,0.1-1.4C27.1,27.3,27.4,28.1,27.2,28.5z"/>
		<path class="st3" d="M42.2,15.8c0.7-0.1,1-0.7,0.7-1.3c-0.4-0.8-1.2-0.5-1.7,0.1C40.6,15.3,41.4,16,42.2,15.8z"/>
		<path class="st3" d="M3.7,14.5c0.7-0.1,1-0.7,0.7-1.3c-0.4-0.8-1.2-0.5-1.7,0.1C2.1,14,2.9,14.7,3.7,14.5z"/>
		<path class="st3" d="M24.2,28.7c0.5-0.1,0.7-0.5,0.5-0.9c-0.3-0.5-0.8-0.3-1.1,0.1C23.2,28.4,23.7,28.8,24.2,28.7z"/>
		<path class="st3" d="M2.8,11.3c0.5-0.1,0.7-0.5,0.5-0.9C3,9.9,2.4,10.1,2.1,10.5C1.7,10.9,2.2,11.4,2.8,11.3z"/>
	</g>
</g>
</svg>
