<?xml version="1.0" encoding="utf-8"?>
<!-- Generator: Adobe Illustrator 22.0.1, SVG Export Plug-In . SVG Version: 6.00 Build 0)  -->
<svg version="1.1" id="Layer_1" xmlns="http://www.w3.org/2000/svg" xmlns:xlink="http://www.w3.org/1999/xlink" x="0px" y="0px"
	 viewBox="0 0 44.9 32.4" style="enable-background:new 0 0 44.9 32.4;" xml:space="preserve">
<style type="text/css">
	.st0{fill:#ED8A6B;}
	.st1{fill:#FFB9A0;}
</style>
<path class="st0" d="M18.5,28.1c-0.7,0.7,0.1,1.8,1.1,1.3c4.5-2.6,8.1-7,10.3-11.7c1.3-2.4,2.4-7.9,0-10.1c-3.9-3.7-8,2.4-9.8,7.1
	c-2.2-4.8-8-10.3-12-5.8C2.4,15.2,15,23.7,18.5,28.1z"/>
<path class="st1" d="M14.9,10.6c2.4,1.9,4.3,4.3,4.3,7.5c0,1.1,1.8,1.1,1.8,0c0.2-2.7,1.5-5.6,3.4-7.5c2.3-2.5,5-2.8,5,1.4
	c0,5.7-4.7,12-9.5,15.2c-1.3-1.8-2.9-3.3-4.3-4.7c-2.1-2.1-6-5.2-6.6-8.2C8.1,9.9,11.3,8.1,14.9,10.6z"/>
</svg>
