<?xml version="1.0" encoding="utf-8"?>
<!-- Generator: Adobe Illustrator 22.0.1, SVG Export Plug-In . SVG Version: 6.00 Build 0)  -->
<svg version="1.1" id="Layer_1" xmlns="http://www.w3.org/2000/svg" xmlns:xlink="http://www.w3.org/1999/xlink" x="0px" y="0px"
	 viewBox="0 0 193.5 208.1" style="enable-background:new 0 0 193.5 208.1;" xml:space="preserve">
<style type="text/css">
	.st0{fill:#A9E5E7;}
</style>
<g>
	<path class="st0" d="M52.6,104.9H27c-1.5,0-2.5,1-2.5,2.5v13.3c0,1.5,1,2.5,2.5,2.5h25.6c1.5,0,2.5-1,2.5-2.5v-13.3
		C55.1,105.9,54.1,104.9,52.6,104.9z M50.1,118.2H29.5v-8.3h20.6V118.2z"/>
	<path class="st0" d="M52.6,131.3H27c-1.5,0-2.5,1-2.5,2.5v13.3c0,1.5,1,2.5,2.5,2.5h25.6c1.5,0,2.5-1,2.5-2.5v-13.3
		C55.1,132.3,54.1,131.3,52.6,131.3z M50.1,144.6H29.5v-8.3h20.6V144.6z"/>
	<path class="st0" d="M52.6,157.7H27c-1.5,0-2.5,1-2.5,2.5v13.3c0,1.5,1,2.5,2.5,2.5h25.6c1.5,0,2.5-1,2.5-2.5v-13.3
		C55.1,158.9,54.1,157.7,52.6,157.7z M50.1,171.3H29.5V163h20.6V171.3z"/>
	<path class="st0" d="M166.5,104.9h-25.6c-1.5,0-2.5,1-2.5,2.5v13.3c0,1.5,1,2.5,2.5,2.5h25.6c1.5,0,2.5-1,2.5-2.5v-13.3
		C169,105.9,168,104.9,166.5,104.9z M164,118.2h-20.6v-8.3H164V118.2z"/>
	<path class="st0" d="M166.5,131.3h-25.6c-1.5,0-2.5,1-2.5,2.5v13.3c0,1.5,1,2.5,2.5,2.5h25.6c1.5,0,2.5-1,2.5-2.5v-13.3
		C169,132.3,168,131.3,166.5,131.3z M164,144.6h-20.6v-8.3H164V144.6z"/>
	<path class="st0" d="M166.5,157.7h-25.6c-1.5,0-2.5,1-2.5,2.5v13.3c0,1.5,1,2.5,2.5,2.5h25.6c1.5,0,2.5-1,2.5-2.5v-13.3
		C169,158.9,168,157.7,166.5,157.7z M164,171.3h-20.6V163H164V171.3z"/>
	<path class="st0" d="M111.5,124.7v-17.4c0-1.5-1-2.5-2.5-2.5H84.8c-1.5,0-2.5,1-2.5,2.5v17.4c0,1.5,1,2.5,2.5,2.5h23.9
		C110.2,127.2,111.5,126,111.5,124.7z M106.4,122.2H87.3v-12.3h18.9v12.3H106.4z"/>
	<path class="st0" d="M96.4,74.4c8.5,0,15.6-7,15.6-15.6s-7-15.6-15.6-15.6s-15.6,7-15.6,15.6S87.6,74.4,96.4,74.4z M96.4,48.3
		c5.8,0,10.6,4.8,10.6,10.6s-4.8,10.6-10.6,10.6c-5.8,0-10.6-4.8-10.6-10.6S90.3,48.3,96.4,48.3z"/>
	<path class="st0" d="M10.9,196.9H68l0,0l0,0H125c0,0,0,0,0.3,0c0,0,0,0,0.3,0h57.1c1.5,0,2.5-1,2.5-2.5V66.1c0-1.5-1-2.5-2.5-2.5
		h-55.1V31.4v-0.3c0-0.3,0-0.3,0-0.5s0-0.3-0.3-0.5c0-0.3-0.3-0.3-0.3-0.5c0-0.3-0.3-0.3-0.5-0.3c0,0,0-0.3-0.3-0.3L97.6,11.6
		c-0.8-0.5-1.8-0.5-2.5,0L66.7,29.2l-0.3,0.3c-0.3,0-0.3,0.3-0.3,0.3s-0.3,0.3-0.3,0.5c0,0.3-0.3,0.3-0.3,0.5s0,0.3,0,0.5v0.3v32.2
		H10.9c-1.5,0-2.5,1-2.5,2.5v128.2C8.4,195.9,9.4,196.9,10.9,196.9z M13.4,191.9V90.3h52.1v101.8H13.4V191.9z M105.4,179H87.3v-32.2
		h18.1V179z M107.9,141.8H84.8c-1.5,0-2.5,1-2.5,2.5v35H70.5v-89h52.1v89h-11.8v-35C110.5,142.8,109.4,141.8,107.9,141.8z
		 M122.5,85.3H70.5V34h52.1V85.3z M70.5,191.9v-7.8h52.1v7.8H70.5z M127.8,191.9V90.3h52.1v101.8h-52.1V191.9z M179.9,68.7v16.6
		h-52.1V68.7H179.9z M96.4,16.9l19.9,12.1H76.8L96.4,16.9z M65.4,68.7v16.6H13.4V68.7H65.4z"/>
</g>
</svg>
