<?xml version="1.0" encoding="utf-8"?>
<!-- Generator: Adobe Illustrator 22.0.1, SVG Export Plug-In . SVG Version: 6.00 Build 0)  -->
<svg version="1.1" id="Layer_1" xmlns="http://www.w3.org/2000/svg" xmlns:xlink="http://www.w3.org/1999/xlink" x="0px" y="0px"
	 viewBox="0 0 216.3 194.4" style="enable-background:new 0 0 216.3 194.4;" xml:space="preserve">
<style type="text/css">
	.st0{fill:none;stroke:#A9E5E7;stroke-width:4;stroke-linecap:round;stroke-linejoin:round;stroke-miterlimit:10;}
</style>
<path class="st0" d="M133.8,52.8c-29.2,0-56.7,11.4-77.4,32c0.1,22.3,8.9,43.3,24.7,59.1c-15.8-15.8-24.6-36.8-24.7-59.1
	C77.1,64.2,104.6,52.9,133.8,52.8z"/>
<path class="st0" d="M133.7,28.2c-37.1,0-70.7,15.1-95.1,39.5c-2-1.3-4.2-2.5-6.7-3.6c-10.1-4.2-19.9-3.4-22,1.6
	c-2.1,5,4.4,12.5,14.4,16.6l0,0c2.5,1,4.9,1.7,7.3,2.2c0,30,12.2,57.2,31.9,76.9l0,0c-1.3,2-2.5,4.2-3.6,6.7
	c-4.2,10.1-3.4,19.9,1.6,22c5,2.1,12.5-4.4,16.6-14.4c1-2.5,1.8-4.9,2.2-7.3l0,0c37.1,0,70.7-15.1,95.1-39.5c2,1.3,4.2,2.5,6.7,3.6
	c10.1,4.2,19.9,3.4,22-1.6c2.1-5-4.4-12.5-14.4-16.6c-2.5-1-4.9-1.8-7.3-2.2l0,0c0-30-12.2-57.2-31.9-76.9l0,0
	c1.3-2,2.5-4.2,3.6-6.7c4.2-10.1,3.4-19.9-1.6-22c-5-2.1-12.5,4.4-16.6,14.4C134.9,23.4,134.2,25.9,133.7,28.2L133.7,28.2
	L133.7,28.2z"/>
</svg>
