<?xml version="1.0" encoding="utf-8"?>
<!-- Generator: Adobe Illustrator 21.1.0, SVG Export Plug-In . SVG Version: 6.00 Build 0)  -->
<svg version="1.1" id="Layer_1" xmlns="http://www.w3.org/2000/svg" xmlns:xlink="http://www.w3.org/1999/xlink" x="0px" y="0px"
	 viewBox="0 0 200 200" style="enable-background:new 0 0 200 200;" xml:space="preserve">
<style type="text/css">
	.st0{fill:#D2EDEF;}
</style>
<path class="st0" d="M103.3,61.6l19.4-18.2c0,0,0,0,0,0c0,0,0.1-0.1,0.1-0.2c0.1-0.1,0.2-0.2,0.3-0.4c0-0.1,0-0.1,0.1-0.2
	c0-0.1,0.1-0.3,0.1-0.4c0,0,0-0.1,0-0.1c0-0.1,0-0.1,0-0.1c0-0.1,0-0.3-0.1-0.4c0-0.1-0.1-0.2-0.1-0.3c0,0,0-0.1,0-0.1l-8.5-14.3
	c-0.3-0.5-0.9-0.9-1.6-0.9H85.3c-0.6,0-1.2,0.3-1.6,0.9l-8.5,14.3c0,0,0,0.1,0,0.1c0,0.1-0.1,0.2-0.1,0.3c0,0.1-0.1,0.3-0.1,0.4
	c0,0,0,0.1,0,0.1c0,0,0,0.1,0,0.1c0,0.1,0,0.3,0.1,0.4c0,0.1,0,0.1,0.1,0.2c0.1,0.1,0.2,0.3,0.3,0.4c0,0.1,0.1,0.1,0.1,0.2
	c0,0,0,0,0,0l19.4,18.2c-28.5,2.1-51.1,26-51.1,55.1c0,30.5,24.8,55.3,55.3,55.3s55.3-24.8,55.3-55.3
	C154.4,87.7,131.8,63.8,103.3,61.6z M103.2,56.6l5.2-12.7h8.4L103.2,56.6z M111.9,29.7l6.3,10.6h-10l-6.2-10.6H111.9z M103.9,40.3
	H93.7l5.1-8.7L103.9,40.3z M86.3,29.7h9.4l-6.2,10.6H80L86.3,29.7z M81.4,43.9h7.9l4.9,12L81.4,43.9z M93.2,43.9h11.3l-5.6,13.9
	L93.2,43.9z M99.1,168.3c-28.5,0-51.6-23.2-51.6-51.6s23.2-51.6,51.6-51.6s51.6,23.2,51.6,51.6S127.5,168.3,99.1,168.3z"/>
<path class="st0" d="M131.9,83.9c-18.1-18.1-47.5-18.1-65.6,0c-18.1,18.1-18.1,47.5,0,65.6c9,9,20.9,13.6,32.8,13.6
	s23.8-4.5,32.8-13.6c8.8-8.8,13.6-20.4,13.6-32.8S140.7,92.7,131.9,83.9z M129.3,147c-16.7,16.7-43.8,16.7-60.5,0
	c-16.7-16.7-16.7-43.8,0-60.5C77.2,78.2,88.1,74,99.1,74c10.9,0,21.9,4.2,30.2,12.5c8.1,8.1,12.5,18.8,12.5,30.2
	S137.4,138.9,129.3,147z"/>
<path class="st0" d="M133.3,43.3c0,1,0.8,1.8,1.8,1.8h7.6c1,0,1.8-0.8,1.8-1.8s-0.8-1.8-1.8-1.8h-7.6
	C134.1,41.5,133.3,42.3,133.3,43.3z"/>
<path class="st0" d="M129.8,52.1l6.1,7.8c0.4,0.5,0.9,0.7,1.4,0.7c0.4,0,0.8-0.1,1.1-0.4c0.8-0.6,0.9-1.8,0.3-2.6l-6.1-7.8
	c-0.6-0.8-1.8-0.9-2.6-0.3C129.4,50.2,129.2,51.3,129.8,52.1z"/>
<path class="st0" d="M135.9,26.7l-6.1,7.8c-0.6,0.8-0.5,1.9,0.3,2.6c0.3,0.3,0.7,0.4,1.1,0.4c0.5,0,1.1-0.2,1.4-0.7l6.1-7.8
	c0.6-0.8,0.5-1.9-0.3-2.6C137.7,25.8,136.5,25.9,135.9,26.7z"/>
<path class="st0" d="M53.6,43.3c0,1,0.8,1.8,1.8,1.8h7.6c1,0,1.8-0.8,1.8-1.8s-0.8-1.8-1.8-1.8h-7.6C54.4,41.5,53.6,42.3,53.6,43.3z
	"/>
<path class="st0" d="M68.3,34.5l-6.1-7.8c-0.6-0.8-1.8-0.9-2.6-0.3c-0.8,0.6-0.9,1.8-0.3,2.6l6.1,7.8c0.4,0.5,0.9,0.7,1.4,0.7
	c0.4,0,0.8-0.1,1.1-0.4C68.8,36.4,68.9,35.3,68.3,34.5z"/>
<path class="st0" d="M65.4,49.9l-6.1,7.8c-0.6,0.8-0.5,1.9,0.3,2.6c0.3,0.3,0.7,0.4,1.1,0.4c0.5,0,1.1-0.2,1.4-0.7l6.1-7.8
	c0.6-0.8,0.5-1.9-0.3-2.6C67.2,48.9,66.1,49.1,65.4,49.9z"/>
</svg>
